<?xml version="1.0" encoding="UTF-8" standalone="no"?>
<!-- Created with Inkscape (http://www.inkscape.org/) -->

<svg
   xmlns:dc="http://purl.org/dc/elements/1.1/"
   xmlns:cc="http://creativecommons.org/ns#"
   xmlns:rdf="http://www.w3.org/1999/02/22-rdf-syntax-ns#"
   xmlns:svg="http://www.w3.org/2000/svg"
   xmlns="http://www.w3.org/2000/svg"
   xmlns:sodipodi="http://sodipodi.sourceforge.net/DTD/sodipodi-0.dtd"
   xmlns:inkscape="http://www.inkscape.org/namespaces/inkscape"
   width="30.48mm"
   height="128.5mm"
   viewBox="0 0 30.480002 128.50002"
   version="1.1"
   id="svg8"
   inkscape:version="0.92.2 5c3e80d, 2017-08-06"
   sodipodi:docname="WavPlay copy.svg">
  <defs
     id="defs2" />
  <sodipodi:namedview
     id="base"
     pagecolor="#ffffff"
     bordercolor="#666666"
     borderopacity="1.0"
     inkscape:pageopacity="0.0"
     inkscape:pageshadow="2"
     inkscape:zoom="1.4"
     inkscape:cx="38.433825"
     inkscape:cy="215.06762"
     inkscape:document-units="mm"
     inkscape:current-layer="svg8"
     showgrid="false"
     units="mm"
     inkscape:snap-bbox="true"
     inkscape:snap-page="true"
     inkscape:bbox-nodes="false"
     inkscape:snap-bbox-edge-midpoints="false"
     inkscape:window-width="1624"
     inkscape:window-height="975"
     inkscape:window-x="0"
     inkscape:window-y="0"
     inkscape:window-maximized="0"
     inkscape:snap-bbox-midpoints="true"
     inkscape:snap-nodes="true"
     showguides="true"
     inkscape:object-paths="true"
     inkscape:guide-bbox="true" />
  <metadata
     id="metadata5">
    <rdf:RDF>
      <cc:Work
         rdf:about="">
        <dc:format>image/svg+xml</dc:format>
        <dc:type
           rdf:resource="http://purl.org/dc/dcmitype/StillImage" />
        <dc:title />
      </cc:Work>
    </rdf:RDF>
  </metadata>
  <g
     inkscape:label="Layer 1"
     inkscape:groupmode="layer"
     id="layer1"
     transform="translate(0,-168.49998)"
     style="display:inline">
    <rect
       style="display:inline;opacity:1;vector-effect:none;fill:#e6e6e6;fill-opacity:1;fill-rule:evenodd;stroke:none;stroke-width:0.64935839;stroke-linecap:butt;stroke-linejoin:miter;stroke-miterlimit:4;stroke-dasharray:none;stroke-dashoffset:0;stroke-opacity:1;paint-order:normal"
       id="rect420"
       width="30.48"
       height="128.5"
       x="5.9211732e-17"
       y="-296.99997"
       transform="scale(1,-1)" />
    <g
       aria-label="My Module"
       style="font-style:normal;font-variant:normal;font-weight:normal;font-stretch:normal;font-size:4.93888855px;line-height:6.61458302px;font-family:'Gotham Rounded';-inkscape-font-specification:'Gotham Rounded';font-variant-ligatures:normal;font-variant-caps:normal;font-variant-numeric:normal;font-feature-settings:normal;text-align:center;letter-spacing:0px;word-spacing:0px;writing-mode:lr-tb;text-anchor:middle;display:inline;fill:#000000;fill-opacity:1;stroke:none;stroke-width:0.26458332px;stroke-linecap:butt;stroke-linejoin:miter;stroke-opacity:1"
       id="text1229">
      <g
         aria-label="Hisschemöller"
         style="font-style:normal;font-variant:normal;font-weight:normal;font-stretch:normal;font-size:4.93888903px;line-height:1.25;font-family:'Myriad Pro';-inkscape-font-specification:'Myriad Pro';letter-spacing:0px;word-spacing:0px;display:none;fill:#000000;fill-opacity:1;stroke:none;stroke-width:0.07000434px"
         id="text42">
        <path
           d="m 1.6930617,175.1486 v 4.2799 h 0.48895 v -2.00025 h 1.20015 v 2.00025 h 0.48895 v -4.2799 h -0.48895 v 1.83515 h -1.20015 v -1.83515 z"
           style="font-style:normal;font-variant:normal;font-weight:normal;font-stretch:condensed;font-size:6.3499999px;font-family:'Myriad Pro';-inkscape-font-specification:'Myriad Pro, Condensed';font-variant-ligatures:normal;font-variant-caps:normal;font-variant-numeric:normal;font-feature-settings:normal;text-align:center;writing-mode:lr-tb;text-anchor:middle;stroke-width:0.07000434px"
           id="path48"
           inkscape:connector-curvature="0" />
        <path
           d="m 5.0832671,179.4285 v -3.0734 h -0.48895 v 3.0734 z m -0.254,-4.18465 c -0.15875,0 -0.28575,0.127 -0.28575,0.3175 0,0.1905 0.12065,0.3175 0.2794,0.3175 0.18415,0 0.3048,-0.127 0.29845,-0.3175 0,-0.1905 -0.1143,-0.3175 -0.2921,-0.3175 z"
           style="font-style:normal;font-variant:normal;font-weight:normal;font-stretch:condensed;font-size:6.3499999px;font-family:'Myriad Pro';-inkscape-font-specification:'Myriad Pro, Condensed';font-variant-ligatures:normal;font-variant-caps:normal;font-variant-numeric:normal;font-feature-settings:normal;text-align:center;writing-mode:lr-tb;text-anchor:middle;stroke-width:0.07000434px"
           id="path50"
           inkscape:connector-curvature="0" />
        <path
           d="m 5.5569372,179.2888 c 0.13335,0.10795 0.381,0.1778 0.6096,0.1778 0.50165,0 0.92075,-0.29845 0.92075,-0.9144 0,-0.42545 -0.2794,-0.70485 -0.635,-0.93345 -0.3048,-0.20955 -0.381,-0.32385 -0.381,-0.5334 0,-0.19685 0.13335,-0.38735 0.40005,-0.38735 0.15875,0 0.2921,0.0571 0.4064,0.13335 l 0.13335,-0.3683 c -0.127,-0.0762 -0.31115,-0.15875 -0.55245,-0.15875 -0.47625,0 -0.84455,0.3556 -0.84455,0.8509 0,0.3556 0.2159,0.61595 0.61595,0.8763 0.31115,0.20955 0.3937,0.3683 0.3937,0.60325 0,0.27305 -0.17145,0.4445 -0.45085,0.4445 -0.19685,0 -0.38735,-0.0889 -0.4953,-0.15875 z"
           style="font-style:normal;font-variant:normal;font-weight:normal;font-stretch:condensed;font-size:6.3499999px;font-family:'Myriad Pro';-inkscape-font-specification:'Myriad Pro, Condensed';font-variant-ligatures:normal;font-variant-caps:normal;font-variant-numeric:normal;font-feature-settings:normal;text-align:center;writing-mode:lr-tb;text-anchor:middle;stroke-width:0.07000434px"
           id="path52"
           inkscape:connector-curvature="0" />
        <path
           d="m 7.3924842,179.2888 c 0.13335,0.10795 0.381,0.1778 0.6096,0.1778 0.50165,0 0.9207499,-0.29845 0.9207499,-0.9144 0,-0.42545 -0.2794,-0.70485 -0.6349999,-0.93345 -0.3048,-0.20955 -0.381,-0.32385 -0.381,-0.5334 0,-0.19685 0.13335,-0.38735 0.40005,-0.38735 0.15875,0 0.2921,0.0571 0.4063999,0.13335 l 0.13335,-0.3683 c -0.127,-0.0762 -0.3111499,-0.15875 -0.5524499,-0.15875 -0.47625,0 -0.84455,0.3556 -0.84455,0.8509 0,0.3556 0.2159,0.61595 0.61595,0.8763 0.31115,0.20955 0.3937,0.3683 0.3937,0.60325 0,0.27305 -0.17145,0.4445 -0.45085,0.4445 -0.19685,0 -0.38735,-0.0889 -0.4953,-0.15875 z"
           style="font-style:normal;font-variant:normal;font-weight:normal;font-stretch:condensed;font-size:6.3499999px;font-family:'Myriad Pro';-inkscape-font-specification:'Myriad Pro, Condensed';font-variant-ligatures:normal;font-variant-caps:normal;font-variant-numeric:normal;font-feature-settings:normal;text-align:center;writing-mode:lr-tb;text-anchor:middle;stroke-width:0.07000434px"
           id="path54"
           inkscape:connector-curvature="0" />
        <path
           d="m 10.866331,178.97765 c -0.1143,0.0508 -0.22225,0.0825 -0.3556,0.0825 -0.45085,0 -0.7238999,-0.4318 -0.7238999,-1.14935 0,-0.60325 0.2222499,-1.18745 0.7111999,-1.18745 0.15875,0 0.28575,0.0508 0.34925,0.0825 l 0.09525,-0.40005 c -0.0889,-0.0508 -0.2667,-0.0952 -0.4318,-0.0952 -0.7683499,0 -1.2128499,0.71755 -1.2128499,1.6002 0,1.016 0.45085,1.55575 1.1239499,1.55575 0.2159,0 0.40005,-0.0508 0.508,-0.1143 z"
           style="font-style:normal;font-variant:normal;font-weight:normal;font-stretch:condensed;font-size:6.3499999px;font-family:'Myriad Pro';-inkscape-font-specification:'Myriad Pro, Condensed';font-variant-ligatures:normal;font-variant-caps:normal;font-variant-numeric:normal;font-feature-settings:normal;text-align:center;writing-mode:lr-tb;text-anchor:middle;stroke-width:0.07000434px"
           id="path56"
           inkscape:connector-curvature="0" />
        <path
           d="m 11.353594,179.4285 h 0.48895 v -1.98755 c 0,-0.0762 0.0063,-0.1651 0.01905,-0.23495 0.0762,-0.32385 0.24765,-0.48895 0.47625,-0.48895 0.3302,0 0.41275,0.3556 0.41275,0.73025 v 1.9812 h 0.48895 v -2.03835 c 0,-0.7747 -0.3302,-1.08585 -0.71755,-1.08585 -0.1778,0 -0.29845,0.0444 -0.41275,0.1143 -0.09525,0.0635 -0.1905,0.15875 -0.254,0.2667 h -0.0127 v -1.651 h -0.48895 z"
           style="font-style:normal;font-variant:normal;font-weight:normal;font-stretch:condensed;font-size:6.3499999px;font-family:'Myriad Pro';-inkscape-font-specification:'Myriad Pro, Condensed';font-variant-ligatures:normal;font-variant-caps:normal;font-variant-numeric:normal;font-feature-settings:normal;text-align:center;writing-mode:lr-tb;text-anchor:middle;stroke-width:0.07000434px"
           id="path58"
           inkscape:connector-curvature="0" />
        <path
           d="m 15.692529,177.93625 c 0.0063,-0.0762 0.0063,-0.15875 0.0063,-0.27305 0,-0.6985 -0.24765,-1.3589 -0.8763,-1.3589 -0.61595,0 -1.03505,0.6223 -1.03505,1.61925 0,0.9398 0.381,1.54305 1.1176,1.54305 0.2413,0 0.50165,-0.0508 0.6731,-0.14605 l -0.0762,-0.36195 c -0.12065,0.0699 -0.29845,0.12065 -0.508,0.12065 -0.3556,0 -0.7239,-0.2032 -0.73025,-1.143 z m -1.4224,-0.36195 c 0.01905,-0.4191 0.18415,-0.889 0.50165,-0.889 0.23495,0 0.4699,0.27305 0.4572,0.889 z"
           style="font-style:normal;font-variant:normal;font-weight:normal;font-stretch:condensed;font-size:6.3499999px;font-family:'Myriad Pro';-inkscape-font-specification:'Myriad Pro, Condensed';font-variant-ligatures:normal;font-variant-caps:normal;font-variant-numeric:normal;font-feature-settings:normal;text-align:center;writing-mode:lr-tb;text-anchor:middle;stroke-width:0.07000434px"
           id="path60"
           inkscape:connector-curvature="0" />
        <path
           d="m 16.227716,179.4285 h 0.4826 v -1.94945 c 0,-0.0952 0.0064,-0.18415 0.01905,-0.2667 0.05715,-0.32385 0.26035,-0.4953 0.4572,-0.4953 0.36195,0 0.42545,0.3556 0.42545,0.6985 v 2.01295 h 0.4826 v -1.97485 c 0,-0.1016 0.0064,-0.19685 0.01905,-0.2794 0.06985,-0.28575 0.24765,-0.4572 0.45085,-0.4572 0.37465,0 0.4318,0.38735 0.4318,0.7874 v 1.92405 h 0.4826 v -2.03835 c 0,-0.78105 -0.32385,-1.08585 -0.7366,-1.08585 -0.15875,0 -0.3048,0.0381 -0.42545,0.12065 -0.1143,0.0762 -0.22225,0.19685 -0.3048,0.34925 h -0.0127 c -0.1143,-0.3302 -0.3556,-0.4699 -0.64135,-0.4699 -0.32385,0 -0.5588,0.18415 -0.69215,0.4318 h -0.0127 l -0.0254,-0.381 h -0.42545 c 0.0064,0.24765 0.0254,0.4318 0.0254,0.79375 z"
           style="font-style:normal;font-variant:normal;font-weight:normal;font-stretch:condensed;font-size:6.3499999px;font-family:'Myriad Pro';-inkscape-font-specification:'Myriad Pro, Condensed';font-variant-ligatures:normal;font-variant-caps:normal;font-variant-numeric:normal;font-feature-settings:normal;text-align:center;writing-mode:lr-tb;text-anchor:middle;stroke-width:0.07000434px"
           id="path62"
           inkscape:connector-curvature="0" />
        <path
           d="m 21.054609,176.3043 c -0.52705,0 -1.0287,0.4699 -1.0287,1.59385 0,1.0795 0.4445,1.58115 0.99695,1.58115 0.4699,0 1.02235,-0.40005 1.02235,-1.5875 0,-1.07315 -0.4445,-1.5875 -0.9906,-1.5875 z m -0.01905,0.3937 c 0.4318,0 0.51435,0.7239 0.51435,1.1938 0,0.47625 -0.08255,1.20015 -0.50165,1.20015 -0.4445,0 -0.5334,-0.69215 -0.5334,-1.20015 0,-0.4699 0.08255,-1.1938 0.5207,-1.1938 z m -0.48895,-0.8636 c 0.1524,0 0.2667,-0.12065 0.2667,-0.2794 0,-0.17145 -0.1143,-0.28575 -0.2667,-0.28575 -0.15875,0 -0.28575,0.12065 -0.28575,0.28575 0,0.15875 0.127,0.2794 0.28575,0.2794 z m 0.98425,0 c 0.15875,0 0.27305,-0.12065 0.27305,-0.2794 0,-0.17145 -0.12065,-0.28575 -0.27305,-0.28575 -0.1524,0 -0.2794,0.12065 -0.2794,0.28575 0,0.15875 0.12065,0.2794 0.2794,0.2794 z"
           style="font-style:normal;font-variant:normal;font-weight:normal;font-stretch:condensed;font-size:6.3499999px;font-family:'Myriad Pro';-inkscape-font-specification:'Myriad Pro, Condensed';font-variant-ligatures:normal;font-variant-caps:normal;font-variant-numeric:normal;font-feature-settings:normal;text-align:center;writing-mode:lr-tb;text-anchor:middle;stroke-width:0.07000434px"
           id="path64"
           inkscape:connector-curvature="0" />
        <path
           d="m 22.590118,179.4285 h 0.48895 v -4.3942 h -0.48895 z"
           style="font-style:normal;font-variant:normal;font-weight:normal;font-stretch:condensed;font-size:6.3499999px;font-family:'Myriad Pro';-inkscape-font-specification:'Myriad Pro, Condensed';font-variant-ligatures:normal;font-variant-caps:normal;font-variant-numeric:normal;font-feature-settings:normal;text-align:center;writing-mode:lr-tb;text-anchor:middle;stroke-width:0.07000434px"
           id="path66"
           inkscape:connector-curvature="0" />
        <path
           d="m 23.805547,179.4285 h 0.48895 v -4.3942 h -0.48895 z"
           style="font-style:normal;font-variant:normal;font-weight:normal;font-stretch:condensed;font-size:6.3499999px;font-family:'Myriad Pro';-inkscape-font-specification:'Myriad Pro, Condensed';font-variant-ligatures:normal;font-variant-caps:normal;font-variant-numeric:normal;font-feature-settings:normal;text-align:center;writing-mode:lr-tb;text-anchor:middle;stroke-width:0.07000434px"
           id="path68"
           inkscape:connector-curvature="0" />
        <path
           d="m 26.792626,177.93625 c 0.0064,-0.0762 0.0064,-0.15875 0.0064,-0.27305 0,-0.6985 -0.24765,-1.3589 -0.8763,-1.3589 -0.61595,0 -1.03505,0.6223 -1.03505,1.61925 0,0.9398 0.381,1.54305 1.1176,1.54305 0.2413,0 0.50165,-0.0508 0.6731,-0.14605 l -0.0762,-0.36195 c -0.12065,0.0699 -0.29845,0.12065 -0.508,0.12065 -0.3556,0 -0.7239,-0.2032 -0.73025,-1.143 z m -1.4224,-0.36195 c 0.01905,-0.4191 0.18415,-0.889 0.50165,-0.889 0.23495,0 0.4699,0.27305 0.4572,0.889 z"
           style="font-style:normal;font-variant:normal;font-weight:normal;font-stretch:condensed;font-size:6.3499999px;font-family:'Myriad Pro';-inkscape-font-specification:'Myriad Pro, Condensed';font-variant-ligatures:normal;font-variant-caps:normal;font-variant-numeric:normal;font-feature-settings:normal;text-align:center;writing-mode:lr-tb;text-anchor:middle;stroke-width:0.07000434px"
           id="path70"
           inkscape:connector-curvature="0" />
        <path
           d="m 27.321463,179.4285 h 0.48895 v -1.7018 c 0,-0.1016 0.0064,-0.19685 0.01905,-0.2794 0.0508,-0.3556 0.2794,-0.64135 0.59055,-0.64135 0.0381,0 0.06985,0 0.1016,0.006 v -0.50165 c -0.03175,0 -0.0635,-0.006 -0.1016,-0.006 -0.28575,0 -0.5461,0.2413 -0.6477,0.5334 h -0.0127 l -0.0254,-0.4826 h -0.43815 c 0.0064,0.2286 0.0254,0.5334 0.0254,0.79375 z"
           style="font-style:normal;font-variant:normal;font-weight:normal;font-stretch:condensed;font-size:6.3499999px;font-family:'Myriad Pro';-inkscape-font-specification:'Myriad Pro, Condensed';font-variant-ligatures:normal;font-variant-caps:normal;font-variant-numeric:normal;font-feature-settings:normal;text-align:center;writing-mode:lr-tb;text-anchor:middle;stroke-width:0.07000434px"
           id="path72"
           inkscape:connector-curvature="0" />
      </g>
    </g>
    <g
       aria-label="Hisschemöller"
       style="font-style:normal;font-variant:normal;font-weight:normal;font-stretch:normal;font-size:5.64444447px;line-height:1.25;font-family:'DIN Condensed';-inkscape-font-specification:'DIN Condensed, ';text-align:center;letter-spacing:0px;word-spacing:0px;text-anchor:middle;fill:#000000;fill-opacity:1;stroke:none;stroke-width:0.26458332"
       id="text71"
       transform="translate(-0.11974178)">
      <path
         d="m 3.0496051,182.23697 v -4.01885 h 0.5757334 v 1.72156 h 0.7112 v -1.72156 h 0.5757333 v 4.01885 H 4.3365385 v -1.78929 h -0.7112 v 1.78929 z"
         style="font-size:5.64444447px;text-align:center;text-anchor:middle;stroke-width:0.26458332"
         id="path129"
         inkscape:connector-curvature="0" />
      <path
         d="m 5.4190371,182.23697 v -2.86173 h 0.5757333 v 2.86173 z m 0,-3.44311 v -0.57574 h 0.5757333 v 0.57574 z"
         style="font-size:5.64444447px;text-align:center;text-anchor:middle;stroke-width:0.26458332"
         id="path131"
         inkscape:connector-curvature="0" />
      <path
         d="m 7.5105685,180.17675 q -0.00564,-0.14676 -0.095956,-0.22014 -0.084667,-0.0734 -0.1975555,-0.0734 -0.1354667,0 -0.2088445,0.0903 -0.073378,0.0847 -0.073378,0.19755 0,0.079 0.039511,0.15805 0.039511,0.0734 0.2032,0.13546 l 0.3386666,0.13547 q 0.3217334,0.12418 0.4402667,0.33867 0.1241778,0.21449 0.1241778,0.46849 0,0.18062 -0.067733,0.33866 -0.062089,0.1524 -0.1749777,0.27094 -0.1128889,0.11853 -0.2709334,0.18626 -0.1580444,0.0677 -0.3443111,0.0677 -0.3499555,0 -0.5870222,-0.22014 -0.1185333,-0.10724 -0.1919111,-0.26529 -0.073378,-0.16369 -0.079022,-0.37817 h 0.5418666 q 0.016933,0.11853 0.079022,0.22013 0.067733,0.1016 0.2314223,0.1016 0.1241777,0 0.2201333,-0.079 0.1016,-0.0847 0.1016,-0.23143 0,-0.11853 -0.062089,-0.2032 -0.062089,-0.0847 -0.2257778,-0.14675 l -0.2765777,-0.1016 q -0.2709334,-0.1016 -0.4289778,-0.29916 -0.1524,-0.2032 -0.1524,-0.49106 0,-0.18063 0.067733,-0.33303 0.067733,-0.15804 0.1862667,-0.27093 0.1128889,-0.11289 0.2652889,-0.16933 0.1524,-0.0621 0.3273777,-0.0621 0.1749778,0 0.3217334,0.0621 0.1524,0.0621 0.2596444,0.17498 0.1072445,0.11288 0.1693334,0.27093 0.062089,0.1524 0.062089,0.32738 z"
         style="font-size:5.64444447px;text-align:center;text-anchor:middle;stroke-width:0.26458332"
         id="path133"
         inkscape:connector-curvature="0" />
      <path
         d="m 9.4949435,180.17675 q -0.00564,-0.14676 -0.095956,-0.22014 -0.084667,-0.0734 -0.1975555,-0.0734 -0.1354667,0 -0.2088445,0.0903 -0.073378,0.0847 -0.073378,0.19755 0,0.079 0.039511,0.15805 0.039511,0.0734 0.2032,0.13546 l 0.3386666,0.13547 q 0.3217334,0.12418 0.4402667,0.33867 0.1241772,0.21449 0.1241772,0.46849 0,0.18062 -0.067733,0.33866 -0.062089,0.1524 -0.1749777,0.27094 -0.1128889,0.11853 -0.2709334,0.18626 -0.1580444,0.0677 -0.3443111,0.0677 -0.3499555,0 -0.5870222,-0.22014 -0.1185333,-0.10724 -0.1919111,-0.26529 -0.073378,-0.16369 -0.079022,-0.37817 h 0.5418666 q 0.016933,0.11853 0.079022,0.22013 0.067733,0.1016 0.2314223,0.1016 0.1241777,0 0.2201333,-0.079 0.1016,-0.0847 0.1016,-0.23143 0,-0.11853 -0.062089,-0.2032 -0.062089,-0.0847 -0.2257778,-0.14675 l -0.2765777,-0.1016 q -0.2709334,-0.1016 -0.4289778,-0.29916 -0.1524,-0.2032 -0.1524,-0.49106 0,-0.18063 0.067733,-0.33303 0.067733,-0.15804 0.1862667,-0.27093 0.1128889,-0.11289 0.2652889,-0.16933 0.1524,-0.0621 0.3273777,-0.0621 0.1749778,0 0.3217334,0.0621 0.1524,0.0621 0.2596444,0.17498 0.1072445,0.11288 0.1693334,0.27093 0.062089,0.1524 0.062089,0.32738 z"
         style="font-size:5.64444447px;text-align:center;text-anchor:middle;stroke-width:0.26458332"
         id="path135"
         inkscape:connector-curvature="0" />
      <path
         d="m 11.044696,181.41288 q 0,0.13547 0.07338,0.20884 0.07902,0.0734 0.208844,0.0734 0.163689,0 0.214489,-0.0959 0.05645,-0.096 0.06773,-0.19191 h 0.575733 q 0,0.37817 -0.231422,0.6096 -0.112889,0.11853 -0.270934,0.18626 -0.158044,0.0677 -0.3556,0.0677 -0.270933,0 -0.462844,-0.11289 -0.186267,-0.11289 -0.287867,-0.29916 -0.06209,-0.11289 -0.08467,-0.25964 -0.02258,-0.14676 -0.02258,-0.32174 v -0.94262 q 0,-0.17498 0.02258,-0.32173 0.02258,-0.14676 0.08467,-0.25965 0.1016,-0.18626 0.287867,-0.29915 0.191911,-0.11289 0.462844,-0.11289 0.197556,0 0.3556,0.0677 0.163689,0.0677 0.276578,0.18627 0.225778,0.254 0.225778,0.6604 h -0.575733 q 0,-0.17498 -0.07902,-0.254 -0.07338,-0.0847 -0.2032,-0.0847 -0.129822,0 -0.208844,0.0847 -0.07338,0.079 -0.07338,0.24271 z"
         style="font-size:5.64444447px;text-align:center;text-anchor:middle;stroke-width:0.26458332"
         id="path137"
         inkscape:connector-curvature="0" />
      <path
         d="m 12.452544,182.23697 v -4.01885 h 0.575734 v 1.43369 h 0.01129 q 0.09031,-0.13546 0.214489,-0.22013 0.129823,-0.0903 0.327378,-0.0903 0.107245,0 0.214489,0.0395 0.107244,0.0339 0.191911,0.11853 0.08467,0.0847 0.135467,0.22014 0.0508,0.12982 0.0508,0.32173 v 2.19569 h -0.575734 v -1.9812 q 0,-0.15805 -0.07338,-0.24836 -0.07338,-0.0903 -0.208845,-0.0903 -0.163689,0 -0.225778,0.1016 -0.06209,0.1016 -0.06209,0.29351 v 1.92476 z"
         style="font-size:5.64444447px;text-align:center;text-anchor:middle;stroke-width:0.26458332"
         id="path139"
         inkscape:connector-curvature="0" />
      <path
         d="m 16.311492,181.02341 h -1.140177 v 0.38947 q 0,0.13547 0.07338,0.20884 0.07902,0.0734 0.208845,0.0734 0.163689,0 0.214489,-0.0959 0.05644,-0.096 0.06773,-0.19191 h 0.575733 q 0,0.37817 -0.231422,0.6096 -0.112889,0.11853 -0.270933,0.18626 -0.158045,0.0677 -0.3556,0.0677 -0.270933,0 -0.462845,-0.11289 -0.186266,-0.11289 -0.287866,-0.29916 -0.06209,-0.11289 -0.08467,-0.25964 -0.02258,-0.14676 -0.02258,-0.32174 v -0.94262 q 0,-0.17498 0.02258,-0.32173 0.02258,-0.14676 0.08467,-0.25965 0.1016,-0.18626 0.287866,-0.29915 0.191912,-0.11289 0.462845,-0.11289 0.197555,0 0.3556,0.0677 0.163689,0.0677 0.276578,0.18627 0.225777,0.254 0.225777,0.63782 z m -1.140177,-0.45155 h 0.564444 v -0.32738 q 0,-0.16369 -0.07902,-0.24271 -0.07338,-0.0847 -0.2032,-0.0847 -0.129822,0 -0.208845,0.0847 -0.07338,0.079 -0.07338,0.24271 z"
         style="font-size:5.64444447px;text-align:center;text-anchor:middle;stroke-width:0.26458332"
         id="path141"
         inkscape:connector-curvature="0" />
      <path
         d="m 16.729975,182.23697 v -2.86173 h 0.575733 v 0.27657 h 0.01129 q 0.09031,-0.13546 0.214489,-0.22013 0.129822,-0.0903 0.327378,-0.0903 0.186266,0 0.310444,0.0903 0.124178,0.0903 0.2032,0.19756 0.107245,-0.11854 0.237067,-0.2032 0.129822,-0.0847 0.361244,-0.0847 0.107245,0 0.220134,0.0395 0.112888,0.0339 0.2032,0.11853 0.09031,0.0847 0.146755,0.22014 0.05644,0.12982 0.05644,0.32173 v 2.19569 h -0.575734 v -1.9812 q 0,-0.15805 -0.07338,-0.24836 -0.07338,-0.0903 -0.208844,-0.0903 -0.163689,0 -0.225778,0.1016 -0.06209,0.1016 -0.06209,0.29351 v 1.92476 H 17.87579 v -1.9812 q 0,-0.15805 -0.07338,-0.24836 -0.07338,-0.0903 -0.208844,-0.0903 -0.163689,0 -0.225778,0.1016 -0.06209,0.1016 -0.06209,0.29351 v 1.92476 z"
         style="font-size:5.64444447px;text-align:center;text-anchor:middle;stroke-width:0.26458332"
         id="path143"
         inkscape:connector-curvature="0" />
      <path
         d="m 20.01954,180.33479 q 0,-0.17498 0.02258,-0.32173 0.02258,-0.14676 0.08467,-0.25965 0.1016,-0.18626 0.287866,-0.29915 0.191911,-0.11289 0.462845,-0.11289 0.270933,0 0.4572,0.11289 0.191911,0.11289 0.293511,0.29915 0.06209,0.11289 0.08467,0.25965 0.02258,0.14675 0.02258,0.32173 v 0.94262 q 0,0.17498 -0.02258,0.32174 -0.02258,0.14675 -0.08467,0.25964 -0.1016,0.18627 -0.293511,0.29916 -0.186267,0.11289 -0.4572,0.11289 -0.270934,0 -0.462845,-0.11289 -0.186266,-0.11289 -0.287866,-0.29916 -0.06209,-0.11289 -0.08467,-0.25964 -0.02258,-0.14676 -0.02258,-0.32174 z m 0.575733,1.03293 q 0,0.16369 0.07338,0.24836 0.07902,0.079 0.208845,0.079 0.129822,0 0.2032,-0.079 0.07902,-0.0847 0.07902,-0.24836 v -1.12324 q 0,-0.16369 -0.07902,-0.24271 -0.07338,-0.0847 -0.2032,-0.0847 -0.129823,0 -0.208845,0.0847 -0.07338,0.079 -0.07338,0.24271 z m -0.428977,-2.4384 v -0.57573 h 0.508 v 0.57573 z m 0.9144,0 v -0.57573 h 0.508 v 0.57573 z"
         style="font-size:5.64444447px;text-align:center;text-anchor:middle;stroke-width:0.26458332"
         id="path145"
         inkscape:connector-curvature="0" />
      <path
         d="M 22.120067,178.21812 H 22.6958 v 3.21169 q 0,0.16369 0.05645,0.22578 0.06209,0.0565 0.225777,0.0734 v 0.54187 q -0.197555,0 -0.3556,-0.0339 -0.158044,-0.0282 -0.270933,-0.11853 -0.112889,-0.0847 -0.174978,-0.23707 -0.05644,-0.15805 -0.05644,-0.41205 z"
         style="font-size:5.64444447px;text-align:center;text-anchor:middle;stroke-width:0.26458332"
         id="path147"
         inkscape:connector-curvature="0" />
      <path
         d="m 23.167377,178.21812 h 0.575733 v 3.21169 q 0,0.16369 0.05645,0.22578 0.06209,0.0565 0.225777,0.0734 v 0.54187 q -0.197555,0 -0.3556,-0.0339 -0.158044,-0.0282 -0.270933,-0.11853 -0.112889,-0.0847 -0.174978,-0.23707 -0.05644,-0.15805 -0.05644,-0.41205 z"
         style="font-size:5.64444447px;text-align:center;text-anchor:middle;stroke-width:0.26458332"
         id="path149"
         inkscape:connector-curvature="0" />
      <path
         d="m 25.913662,181.02341 h -1.140177 v 0.38947 q 0,0.13547 0.07338,0.20884 0.07902,0.0734 0.208845,0.0734 0.163689,0 0.214489,-0.0959 0.05644,-0.096 0.06773,-0.19191 h 0.575733 q 0,0.37817 -0.231422,0.6096 -0.112889,0.11853 -0.270933,0.18626 -0.158045,0.0677 -0.3556,0.0677 -0.270933,0 -0.462845,-0.11289 -0.186266,-0.11289 -0.287866,-0.29916 -0.06209,-0.11289 -0.08467,-0.25964 -0.02258,-0.14676 -0.02258,-0.32174 v -0.94262 q 0,-0.17498 0.02258,-0.32173 0.02258,-0.14676 0.08467,-0.25965 0.1016,-0.18626 0.287866,-0.29915 0.191912,-0.11289 0.462845,-0.11289 0.197555,0 0.3556,0.0677 0.163689,0.0677 0.276578,0.18627 0.225777,0.254 0.225777,0.63782 z m -1.140177,-0.45155 h 0.564444 v -0.32738 q 0,-0.16369 -0.07902,-0.24271 -0.07338,-0.0847 -0.2032,-0.0847 -0.129822,0 -0.208845,0.0847 -0.07338,0.079 -0.07338,0.24271 z"
         style="font-size:5.64444447px;text-align:center;text-anchor:middle;stroke-width:0.26458332"
         id="path151"
         inkscape:connector-curvature="0" />
      <path
         d="m 26.332145,182.23697 v -2.86173 h 0.575733 v 0.3048 q 0.174978,-0.15805 0.344311,-0.24836 0.169334,-0.0903 0.417689,-0.0903 v 0.6096 q -0.08467,-0.0339 -0.174978,-0.0339 -0.09031,0 -0.197555,0.0339 -0.1016,0.0282 -0.186267,0.1016 -0.09031,0.0734 -0.146755,0.19191 -0.05645,0.11853 -0.05645,0.29351 v 1.69898 z"
         style="font-size:5.64444447px;text-align:center;text-anchor:middle;stroke-width:0.26458332"
         id="path153"
         inkscape:connector-curvature="0" />
    </g>
    <text
       xml:space="preserve"
       style="font-style:normal;font-variant:normal;font-weight:normal;font-stretch:normal;font-size:5.64444447px;line-height:1.25;font-family:'DIN Condensed';-inkscape-font-specification:'DIN Condensed, ';letter-spacing:0px;word-spacing:0px;fill:#000000;fill-opacity:1;stroke:none;stroke-width:0.26458332"
       x="7.8761606"
       y="188.10504"
       id="text127"><tspan
         sodipodi:role="line"
         id="tspan125"
         x="7.8761606"
         y="188.10504"
         style="font-size:5.64444447px;stroke-width:0.26458332">WavPlay</tspan></text>
    <text
       xml:space="preserve"
       style="font-style:normal;font-variant:normal;font-weight:normal;font-stretch:normal;font-size:4.93888903px;line-height:1.25;font-family:'DIN Condensed';-inkscape-font-specification:'DIN Condensed, ';letter-spacing:0px;word-spacing:0px;fill:#000000;fill-opacity:1;stroke:none;stroke-width:0.26458332"
       x="10.192648"
       y="287.24463"
       id="text4652"><tspan
         sodipodi:role="line"
         id="tspan4650"
         x="10.192648"
         y="287.24463"
         style="font-size:4.93888903px;stroke-width:0.26458332">Output</tspan></text>
    <text
       id="text4656"
       y="222.11943"
       x="11.418921"
       style="font-style:normal;font-variant:normal;font-weight:normal;font-stretch:normal;font-size:4.93888903px;line-height:1.25;font-family:'DIN Condensed';-inkscape-font-specification:'DIN Condensed, ';letter-spacing:0px;word-spacing:0px;fill:#000000;fill-opacity:1;stroke:none;stroke-width:0.26458332"
       xml:space="preserve"><tspan
         style="font-size:4.93888903px;stroke-width:0.26458332"
         y="222.11943"
         x="11.418921"
         id="tspan4654"
         sodipodi:role="line">Pitch</tspan></text>
    <text
       id="text4660"
       y="265.86877"
       x="10.305355"
       style="font-style:normal;font-variant:normal;font-weight:normal;font-stretch:normal;font-size:4.93888903px;line-height:1.25;font-family:'DIN Condensed';-inkscape-font-specification:'DIN Condensed, ';letter-spacing:0px;word-spacing:0px;fill:#000000;fill-opacity:1;stroke:none;stroke-width:0.26458332"
       xml:space="preserve"><tspan
         style="font-size:4.93888903px;stroke-width:0.26458332"
         y="265.86877"
         x="10.305355"
         id="tspan4658"
         sodipodi:role="line">1V/oct</tspan></text>
    <text
       xml:space="preserve"
       style="font-style:normal;font-variant:normal;font-weight:normal;font-stretch:normal;font-size:4.93888903px;line-height:1.25;font-family:'DIN Condensed';-inkscape-font-specification:'DIN Condensed, ';letter-spacing:0px;word-spacing:0px;fill:#000000;fill-opacity:1;stroke:none;stroke-width:0.26458332"
       x="9.9185781"
       y="243.48045"
       id="text4664"><tspan
         sodipodi:role="line"
         id="tspan4662"
         x="9.9185781"
         y="243.48045"
         style="font-size:4.93888903px;stroke-width:0.26458332">Trigger</tspan></text>
  </g>
  <g
     inkscape:groupmode="layer"
     id="layer2"
     inkscape:label="components"
     style="display:none">
    <circle
       style="display:inline;opacity:1;vector-effect:none;fill:#ff0000;fill-opacity:1;fill-rule:evenodd;stroke:none;stroke-width:1;stroke-linecap:butt;stroke-linejoin:miter;stroke-miterlimit:4;stroke-dasharray:none;stroke-dashoffset:0;stroke-opacity:1;paint-order:normal"
       id="path4954"
       cx="15.24"
       cy="43.946594"
       r="4"
       inkscape:label="pitch" />
    <circle
       r="4"
       cy="87.123924"
       cx="15.24"
       id="circle4956"
       style="display:inline;opacity:1;vector-effect:none;fill:#00ff00;fill-opacity:1;fill-rule:evenodd;stroke:none;stroke-width:1;stroke-linecap:butt;stroke-linejoin:miter;stroke-miterlimit:4;stroke-dasharray:none;stroke-dashoffset:0;stroke-opacity:1;paint-order:normal"
       inkscape:label="pitch" />
    <circle
       style="display:inline;opacity:1;vector-effect:none;fill:#0000ff;fill-opacity:1;fill-rule:evenodd;stroke:none;stroke-width:1;stroke-linecap:butt;stroke-linejoin:miter;stroke-miterlimit:4;stroke-dasharray:none;stroke-dashoffset:0;stroke-opacity:1;paint-order:normal"
       id="circle4958"
       cx="15.24"
       cy="108.71259"
       r="4"
       inkscape:label="audio" />
    <circle
       inkscape:label="isplaying"
       r="4"
       cy="25.80987"
       cx="15.24"
       id="circle66"
       style="display:inline;opacity:1;vector-effect:none;fill:#a300ff;fill-opacity:1;fill-rule:evenodd;stroke:none;stroke-width:1;stroke-linecap:butt;stroke-linejoin:miter;stroke-miterlimit:4;stroke-dasharray:none;stroke-dashoffset:0;stroke-opacity:1;paint-order:normal" />
    <circle
       inkscape:label="trigger"
       style="display:inline;opacity:1;vector-effect:none;fill:#00ff00;fill-opacity:1;fill-rule:evenodd;stroke:none;stroke-width:1;stroke-linecap:butt;stroke-linejoin:miter;stroke-miterlimit:4;stroke-dasharray:none;stroke-dashoffset:0;stroke-opacity:1;paint-order:normal"
       id="circle4666"
       cx="15.24"
       cy="65.535255"
       r="4" />
  </g>
</svg>
