<?xml version="1.0" encoding="UTF-8" standalone="no"?>
<!-- Created with Inkscape (http://www.inkscape.org/) -->

<svg
   xmlns:dc="http://purl.org/dc/elements/1.1/"
   xmlns:cc="http://creativecommons.org/ns#"
   xmlns:rdf="http://www.w3.org/1999/02/22-rdf-syntax-ns#"
   xmlns:svg="http://www.w3.org/2000/svg"
   xmlns="http://www.w3.org/2000/svg"
   xmlns:sodipodi="http://sodipodi.sourceforge.net/DTD/sodipodi-0.dtd"
   xmlns:inkscape="http://www.inkscape.org/namespaces/inkscape"
   width="30.48mm"
   height="128.5mm"
   viewBox="0 0 30.480002 128.50002"
   version="1.1"
   id="svg8"
   inkscape:version="0.92.2 5c3e80d, 2017-08-06"
   sodipodi:docname="WavPlay.svg">
  <defs
     id="defs2" />
  <sodipodi:namedview
     id="base"
     pagecolor="#ffffff"
     bordercolor="#666666"
     borderopacity="1.0"
     inkscape:pageopacity="0.0"
     inkscape:pageshadow="2"
     inkscape:zoom="1.979899"
     inkscape:cx="3.2908284"
     inkscape:cy="306.50102"
     inkscape:document-units="mm"
     inkscape:current-layer="layer1"
     showgrid="false"
     units="mm"
     inkscape:snap-bbox="true"
     inkscape:snap-page="true"
     inkscape:bbox-nodes="false"
     inkscape:snap-bbox-edge-midpoints="false"
     inkscape:window-width="1624"
     inkscape:window-height="975"
     inkscape:window-x="0"
     inkscape:window-y="0"
     inkscape:window-maximized="0"
     inkscape:snap-bbox-midpoints="true"
     inkscape:snap-nodes="true"
     showguides="true"
     inkscape:object-paths="true"
     inkscape:guide-bbox="true"
     inkscape:measure-start="219.286,227.857"
     inkscape:measure-end="0,0" />
  <metadata
     id="metadata5">
    <rdf:RDF>
      <cc:Work
         rdf:about="">
        <dc:format>image/svg+xml</dc:format>
        <dc:type
           rdf:resource="http://purl.org/dc/dcmitype/StillImage" />
        <dc:title />
      </cc:Work>
    </rdf:RDF>
  </metadata>
  <g
     inkscape:label="Layer 1"
     inkscape:groupmode="layer"
     id="layer1"
     transform="translate(0,-168.49998)"
     style="display:inline">
    <rect
       style="display:inline;opacity:1;vector-effect:none;fill:#e6e6e6;fill-opacity:1;fill-rule:evenodd;stroke:none;stroke-width:0.64935839;stroke-linecap:butt;stroke-linejoin:miter;stroke-miterlimit:4;stroke-dasharray:none;stroke-dashoffset:0;stroke-opacity:1;paint-order:normal"
       id="rect420"
       width="30.48"
       height="128.5"
       x="5.9211732e-17"
       y="-296.99997"
       transform="scale(1,-1)" />
    <g
       aria-label="My Module"
       style="font-style:normal;font-variant:normal;font-weight:normal;font-stretch:normal;font-size:4.93888855px;line-height:6.61458302px;font-family:'Gotham Rounded';-inkscape-font-specification:'Gotham Rounded';font-variant-ligatures:normal;font-variant-caps:normal;font-variant-numeric:normal;font-feature-settings:normal;text-align:center;letter-spacing:0px;word-spacing:0px;writing-mode:lr-tb;text-anchor:middle;display:inline;fill:#000000;fill-opacity:1;stroke:none;stroke-width:0.26458332px;stroke-linecap:butt;stroke-linejoin:miter;stroke-opacity:1"
       id="text1229">
      <g
         aria-label="Hisschemöller"
         style="font-style:normal;font-variant:normal;font-weight:normal;font-stretch:normal;font-size:4.93888903px;line-height:1.25;font-family:'Myriad Pro';-inkscape-font-specification:'Myriad Pro';letter-spacing:0px;word-spacing:0px;display:none;fill:#000000;fill-opacity:1;stroke:none;stroke-width:0.07000434px"
         id="text42">
        <path
           d="m 1.6930617,175.1486 v 4.2799 h 0.48895 v -2.00025 h 1.20015 v 2.00025 h 0.48895 v -4.2799 h -0.48895 v 1.83515 h -1.20015 v -1.83515 z"
           style="font-style:normal;font-variant:normal;font-weight:normal;font-stretch:condensed;font-size:6.3499999px;font-family:'Myriad Pro';-inkscape-font-specification:'Myriad Pro, Condensed';font-variant-ligatures:normal;font-variant-caps:normal;font-variant-numeric:normal;font-feature-settings:normal;text-align:center;writing-mode:lr-tb;text-anchor:middle;stroke-width:0.07000434px"
           id="path48"
           inkscape:connector-curvature="0" />
        <path
           d="m 5.0832671,179.4285 v -3.0734 h -0.48895 v 3.0734 z m -0.254,-4.18465 c -0.15875,0 -0.28575,0.127 -0.28575,0.3175 0,0.1905 0.12065,0.3175 0.2794,0.3175 0.18415,0 0.3048,-0.127 0.29845,-0.3175 0,-0.1905 -0.1143,-0.3175 -0.2921,-0.3175 z"
           style="font-style:normal;font-variant:normal;font-weight:normal;font-stretch:condensed;font-size:6.3499999px;font-family:'Myriad Pro';-inkscape-font-specification:'Myriad Pro, Condensed';font-variant-ligatures:normal;font-variant-caps:normal;font-variant-numeric:normal;font-feature-settings:normal;text-align:center;writing-mode:lr-tb;text-anchor:middle;stroke-width:0.07000434px"
           id="path50"
           inkscape:connector-curvature="0" />
        <path
           d="m 5.5569372,179.2888 c 0.13335,0.10795 0.381,0.1778 0.6096,0.1778 0.50165,0 0.92075,-0.29845 0.92075,-0.9144 0,-0.42545 -0.2794,-0.70485 -0.635,-0.93345 -0.3048,-0.20955 -0.381,-0.32385 -0.381,-0.5334 0,-0.19685 0.13335,-0.38735 0.40005,-0.38735 0.15875,0 0.2921,0.0571 0.4064,0.13335 l 0.13335,-0.3683 c -0.127,-0.0762 -0.31115,-0.15875 -0.55245,-0.15875 -0.47625,0 -0.84455,0.3556 -0.84455,0.8509 0,0.3556 0.2159,0.61595 0.61595,0.8763 0.31115,0.20955 0.3937,0.3683 0.3937,0.60325 0,0.27305 -0.17145,0.4445 -0.45085,0.4445 -0.19685,0 -0.38735,-0.0889 -0.4953,-0.15875 z"
           style="font-style:normal;font-variant:normal;font-weight:normal;font-stretch:condensed;font-size:6.3499999px;font-family:'Myriad Pro';-inkscape-font-specification:'Myriad Pro, Condensed';font-variant-ligatures:normal;font-variant-caps:normal;font-variant-numeric:normal;font-feature-settings:normal;text-align:center;writing-mode:lr-tb;text-anchor:middle;stroke-width:0.07000434px"
           id="path52"
           inkscape:connector-curvature="0" />
        <path
           d="m 7.3924842,179.2888 c 0.13335,0.10795 0.381,0.1778 0.6096,0.1778 0.50165,0 0.9207499,-0.29845 0.9207499,-0.9144 0,-0.42545 -0.2794,-0.70485 -0.6349999,-0.93345 -0.3048,-0.20955 -0.381,-0.32385 -0.381,-0.5334 0,-0.19685 0.13335,-0.38735 0.40005,-0.38735 0.15875,0 0.2921,0.0571 0.4063999,0.13335 l 0.13335,-0.3683 c -0.127,-0.0762 -0.3111499,-0.15875 -0.5524499,-0.15875 -0.47625,0 -0.84455,0.3556 -0.84455,0.8509 0,0.3556 0.2159,0.61595 0.61595,0.8763 0.31115,0.20955 0.3937,0.3683 0.3937,0.60325 0,0.27305 -0.17145,0.4445 -0.45085,0.4445 -0.19685,0 -0.38735,-0.0889 -0.4953,-0.15875 z"
           style="font-style:normal;font-variant:normal;font-weight:normal;font-stretch:condensed;font-size:6.3499999px;font-family:'Myriad Pro';-inkscape-font-specification:'Myriad Pro, Condensed';font-variant-ligatures:normal;font-variant-caps:normal;font-variant-numeric:normal;font-feature-settings:normal;text-align:center;writing-mode:lr-tb;text-anchor:middle;stroke-width:0.07000434px"
           id="path54"
           inkscape:connector-curvature="0" />
        <path
           d="m 10.866331,178.97765 c -0.1143,0.0508 -0.22225,0.0825 -0.3556,0.0825 -0.45085,0 -0.7238999,-0.4318 -0.7238999,-1.14935 0,-0.60325 0.2222499,-1.18745 0.7111999,-1.18745 0.15875,0 0.28575,0.0508 0.34925,0.0825 l 0.09525,-0.40005 c -0.0889,-0.0508 -0.2667,-0.0952 -0.4318,-0.0952 -0.7683499,0 -1.2128499,0.71755 -1.2128499,1.6002 0,1.016 0.45085,1.55575 1.1239499,1.55575 0.2159,0 0.40005,-0.0508 0.508,-0.1143 z"
           style="font-style:normal;font-variant:normal;font-weight:normal;font-stretch:condensed;font-size:6.3499999px;font-family:'Myriad Pro';-inkscape-font-specification:'Myriad Pro, Condensed';font-variant-ligatures:normal;font-variant-caps:normal;font-variant-numeric:normal;font-feature-settings:normal;text-align:center;writing-mode:lr-tb;text-anchor:middle;stroke-width:0.07000434px"
           id="path56"
           inkscape:connector-curvature="0" />
        <path
           d="m 11.353594,179.4285 h 0.48895 v -1.98755 c 0,-0.0762 0.0063,-0.1651 0.01905,-0.23495 0.0762,-0.32385 0.24765,-0.48895 0.47625,-0.48895 0.3302,0 0.41275,0.3556 0.41275,0.73025 v 1.9812 h 0.48895 v -2.03835 c 0,-0.7747 -0.3302,-1.08585 -0.71755,-1.08585 -0.1778,0 -0.29845,0.0444 -0.41275,0.1143 -0.09525,0.0635 -0.1905,0.15875 -0.254,0.2667 h -0.0127 v -1.651 h -0.48895 z"
           style="font-style:normal;font-variant:normal;font-weight:normal;font-stretch:condensed;font-size:6.3499999px;font-family:'Myriad Pro';-inkscape-font-specification:'Myriad Pro, Condensed';font-variant-ligatures:normal;font-variant-caps:normal;font-variant-numeric:normal;font-feature-settings:normal;text-align:center;writing-mode:lr-tb;text-anchor:middle;stroke-width:0.07000434px"
           id="path58"
           inkscape:connector-curvature="0" />
        <path
           d="m 15.692529,177.93625 c 0.0063,-0.0762 0.0063,-0.15875 0.0063,-0.27305 0,-0.6985 -0.24765,-1.3589 -0.8763,-1.3589 -0.61595,0 -1.03505,0.6223 -1.03505,1.61925 0,0.9398 0.381,1.54305 1.1176,1.54305 0.2413,0 0.50165,-0.0508 0.6731,-0.14605 l -0.0762,-0.36195 c -0.12065,0.0699 -0.29845,0.12065 -0.508,0.12065 -0.3556,0 -0.7239,-0.2032 -0.73025,-1.143 z m -1.4224,-0.36195 c 0.01905,-0.4191 0.18415,-0.889 0.50165,-0.889 0.23495,0 0.4699,0.27305 0.4572,0.889 z"
           style="font-style:normal;font-variant:normal;font-weight:normal;font-stretch:condensed;font-size:6.3499999px;font-family:'Myriad Pro';-inkscape-font-specification:'Myriad Pro, Condensed';font-variant-ligatures:normal;font-variant-caps:normal;font-variant-numeric:normal;font-feature-settings:normal;text-align:center;writing-mode:lr-tb;text-anchor:middle;stroke-width:0.07000434px"
           id="path60"
           inkscape:connector-curvature="0" />
        <path
           d="m 16.227716,179.4285 h 0.4826 v -1.94945 c 0,-0.0952 0.0064,-0.18415 0.01905,-0.2667 0.05715,-0.32385 0.26035,-0.4953 0.4572,-0.4953 0.36195,0 0.42545,0.3556 0.42545,0.6985 v 2.01295 h 0.4826 v -1.97485 c 0,-0.1016 0.0064,-0.19685 0.01905,-0.2794 0.06985,-0.28575 0.24765,-0.4572 0.45085,-0.4572 0.37465,0 0.4318,0.38735 0.4318,0.7874 v 1.92405 h 0.4826 v -2.03835 c 0,-0.78105 -0.32385,-1.08585 -0.7366,-1.08585 -0.15875,0 -0.3048,0.0381 -0.42545,0.12065 -0.1143,0.0762 -0.22225,0.19685 -0.3048,0.34925 h -0.0127 c -0.1143,-0.3302 -0.3556,-0.4699 -0.64135,-0.4699 -0.32385,0 -0.5588,0.18415 -0.69215,0.4318 h -0.0127 l -0.0254,-0.381 h -0.42545 c 0.0064,0.24765 0.0254,0.4318 0.0254,0.79375 z"
           style="font-style:normal;font-variant:normal;font-weight:normal;font-stretch:condensed;font-size:6.3499999px;font-family:'Myriad Pro';-inkscape-font-specification:'Myriad Pro, Condensed';font-variant-ligatures:normal;font-variant-caps:normal;font-variant-numeric:normal;font-feature-settings:normal;text-align:center;writing-mode:lr-tb;text-anchor:middle;stroke-width:0.07000434px"
           id="path62"
           inkscape:connector-curvature="0" />
        <path
           d="m 21.054609,176.3043 c -0.52705,0 -1.0287,0.4699 -1.0287,1.59385 0,1.0795 0.4445,1.58115 0.99695,1.58115 0.4699,0 1.02235,-0.40005 1.02235,-1.5875 0,-1.07315 -0.4445,-1.5875 -0.9906,-1.5875 z m -0.01905,0.3937 c 0.4318,0 0.51435,0.7239 0.51435,1.1938 0,0.47625 -0.08255,1.20015 -0.50165,1.20015 -0.4445,0 -0.5334,-0.69215 -0.5334,-1.20015 0,-0.4699 0.08255,-1.1938 0.5207,-1.1938 z m -0.48895,-0.8636 c 0.1524,0 0.2667,-0.12065 0.2667,-0.2794 0,-0.17145 -0.1143,-0.28575 -0.2667,-0.28575 -0.15875,0 -0.28575,0.12065 -0.28575,0.28575 0,0.15875 0.127,0.2794 0.28575,0.2794 z m 0.98425,0 c 0.15875,0 0.27305,-0.12065 0.27305,-0.2794 0,-0.17145 -0.12065,-0.28575 -0.27305,-0.28575 -0.1524,0 -0.2794,0.12065 -0.2794,0.28575 0,0.15875 0.12065,0.2794 0.2794,0.2794 z"
           style="font-style:normal;font-variant:normal;font-weight:normal;font-stretch:condensed;font-size:6.3499999px;font-family:'Myriad Pro';-inkscape-font-specification:'Myriad Pro, Condensed';font-variant-ligatures:normal;font-variant-caps:normal;font-variant-numeric:normal;font-feature-settings:normal;text-align:center;writing-mode:lr-tb;text-anchor:middle;stroke-width:0.07000434px"
           id="path64"
           inkscape:connector-curvature="0" />
        <path
           d="m 22.590118,179.4285 h 0.48895 v -4.3942 h -0.48895 z"
           style="font-style:normal;font-variant:normal;font-weight:normal;font-stretch:condensed;font-size:6.3499999px;font-family:'Myriad Pro';-inkscape-font-specification:'Myriad Pro, Condensed';font-variant-ligatures:normal;font-variant-caps:normal;font-variant-numeric:normal;font-feature-settings:normal;text-align:center;writing-mode:lr-tb;text-anchor:middle;stroke-width:0.07000434px"
           id="path66"
           inkscape:connector-curvature="0" />
        <path
           d="m 23.805547,179.4285 h 0.48895 v -4.3942 h -0.48895 z"
           style="font-style:normal;font-variant:normal;font-weight:normal;font-stretch:condensed;font-size:6.3499999px;font-family:'Myriad Pro';-inkscape-font-specification:'Myriad Pro, Condensed';font-variant-ligatures:normal;font-variant-caps:normal;font-variant-numeric:normal;font-feature-settings:normal;text-align:center;writing-mode:lr-tb;text-anchor:middle;stroke-width:0.07000434px"
           id="path68"
           inkscape:connector-curvature="0" />
        <path
           d="m 26.792626,177.93625 c 0.0064,-0.0762 0.0064,-0.15875 0.0064,-0.27305 0,-0.6985 -0.24765,-1.3589 -0.8763,-1.3589 -0.61595,0 -1.03505,0.6223 -1.03505,1.61925 0,0.9398 0.381,1.54305 1.1176,1.54305 0.2413,0 0.50165,-0.0508 0.6731,-0.14605 l -0.0762,-0.36195 c -0.12065,0.0699 -0.29845,0.12065 -0.508,0.12065 -0.3556,0 -0.7239,-0.2032 -0.73025,-1.143 z m -1.4224,-0.36195 c 0.01905,-0.4191 0.18415,-0.889 0.50165,-0.889 0.23495,0 0.4699,0.27305 0.4572,0.889 z"
           style="font-style:normal;font-variant:normal;font-weight:normal;font-stretch:condensed;font-size:6.3499999px;font-family:'Myriad Pro';-inkscape-font-specification:'Myriad Pro, Condensed';font-variant-ligatures:normal;font-variant-caps:normal;font-variant-numeric:normal;font-feature-settings:normal;text-align:center;writing-mode:lr-tb;text-anchor:middle;stroke-width:0.07000434px"
           id="path70"
           inkscape:connector-curvature="0" />
        <path
           d="m 27.321463,179.4285 h 0.48895 v -1.7018 c 0,-0.1016 0.0064,-0.19685 0.01905,-0.2794 0.0508,-0.3556 0.2794,-0.64135 0.59055,-0.64135 0.0381,0 0.06985,0 0.1016,0.006 v -0.50165 c -0.03175,0 -0.0635,-0.006 -0.1016,-0.006 -0.28575,0 -0.5461,0.2413 -0.6477,0.5334 h -0.0127 l -0.0254,-0.4826 h -0.43815 c 0.0064,0.2286 0.0254,0.5334 0.0254,0.79375 z"
           style="font-style:normal;font-variant:normal;font-weight:normal;font-stretch:condensed;font-size:6.3499999px;font-family:'Myriad Pro';-inkscape-font-specification:'Myriad Pro, Condensed';font-variant-ligatures:normal;font-variant-caps:normal;font-variant-numeric:normal;font-feature-settings:normal;text-align:center;writing-mode:lr-tb;text-anchor:middle;stroke-width:0.07000434px"
           id="path72"
           inkscape:connector-curvature="0" />
      </g>
    </g>
    <g
       aria-label="Hisschemöller"
       style="font-style:normal;font-variant:normal;font-weight:normal;font-stretch:normal;font-size:5.64444447px;line-height:1.25;font-family:'DIN Condensed';-inkscape-font-specification:'DIN Condensed, ';text-align:center;letter-spacing:0px;word-spacing:0px;text-anchor:middle;fill:#000000;fill-opacity:1;stroke:none;stroke-width:0.26458332"
       id="text71"
       transform="translate(-0.11974178)">
      <path
         d="m 3.0496051,182.23697 v -4.01885 h 0.5757334 v 1.72156 h 0.7112 v -1.72156 h 0.5757333 v 4.01885 H 4.3365385 v -1.78929 h -0.7112 v 1.78929 z"
         style="font-size:5.64444447px;text-align:center;text-anchor:middle;stroke-width:0.26458332"
         id="path129"
         inkscape:connector-curvature="0" />
      <path
         d="m 5.4190371,182.23697 v -2.86173 h 0.5757333 v 2.86173 z m 0,-3.44311 v -0.57574 h 0.5757333 v 0.57574 z"
         style="font-size:5.64444447px;text-align:center;text-anchor:middle;stroke-width:0.26458332"
         id="path131"
         inkscape:connector-curvature="0" />
      <path
         d="m 7.5105685,180.17675 q -0.00564,-0.14676 -0.095956,-0.22014 -0.084667,-0.0734 -0.1975555,-0.0734 -0.1354667,0 -0.2088445,0.0903 -0.073378,0.0847 -0.073378,0.19755 0,0.079 0.039511,0.15805 0.039511,0.0734 0.2032,0.13546 l 0.3386666,0.13547 q 0.3217334,0.12418 0.4402667,0.33867 0.1241778,0.21449 0.1241778,0.46849 0,0.18062 -0.067733,0.33866 -0.062089,0.1524 -0.1749777,0.27094 -0.1128889,0.11853 -0.2709334,0.18626 -0.1580444,0.0677 -0.3443111,0.0677 -0.3499555,0 -0.5870222,-0.22014 -0.1185333,-0.10724 -0.1919111,-0.26529 -0.073378,-0.16369 -0.079022,-0.37817 h 0.5418666 q 0.016933,0.11853 0.079022,0.22013 0.067733,0.1016 0.2314223,0.1016 0.1241777,0 0.2201333,-0.079 0.1016,-0.0847 0.1016,-0.23143 0,-0.11853 -0.062089,-0.2032 -0.062089,-0.0847 -0.2257778,-0.14675 l -0.2765777,-0.1016 q -0.2709334,-0.1016 -0.4289778,-0.29916 -0.1524,-0.2032 -0.1524,-0.49106 0,-0.18063 0.067733,-0.33303 0.067733,-0.15804 0.1862667,-0.27093 0.1128889,-0.11289 0.2652889,-0.16933 0.1524,-0.0621 0.3273777,-0.0621 0.1749778,0 0.3217334,0.0621 0.1524,0.0621 0.2596444,0.17498 0.1072445,0.11288 0.1693334,0.27093 0.062089,0.1524 0.062089,0.32738 z"
         style="font-size:5.64444447px;text-align:center;text-anchor:middle;stroke-width:0.26458332"
         id="path133"
         inkscape:connector-curvature="0" />
      <path
         d="m 9.4949435,180.17675 q -0.00564,-0.14676 -0.095956,-0.22014 -0.084667,-0.0734 -0.1975555,-0.0734 -0.1354667,0 -0.2088445,0.0903 -0.073378,0.0847 -0.073378,0.19755 0,0.079 0.039511,0.15805 0.039511,0.0734 0.2032,0.13546 l 0.3386666,0.13547 q 0.3217334,0.12418 0.4402667,0.33867 0.1241772,0.21449 0.1241772,0.46849 0,0.18062 -0.067733,0.33866 -0.062089,0.1524 -0.1749777,0.27094 -0.1128889,0.11853 -0.2709334,0.18626 -0.1580444,0.0677 -0.3443111,0.0677 -0.3499555,0 -0.5870222,-0.22014 -0.1185333,-0.10724 -0.1919111,-0.26529 -0.073378,-0.16369 -0.079022,-0.37817 h 0.5418666 q 0.016933,0.11853 0.079022,0.22013 0.067733,0.1016 0.2314223,0.1016 0.1241777,0 0.2201333,-0.079 0.1016,-0.0847 0.1016,-0.23143 0,-0.11853 -0.062089,-0.2032 -0.062089,-0.0847 -0.2257778,-0.14675 l -0.2765777,-0.1016 q -0.2709334,-0.1016 -0.4289778,-0.29916 -0.1524,-0.2032 -0.1524,-0.49106 0,-0.18063 0.067733,-0.33303 0.067733,-0.15804 0.1862667,-0.27093 0.1128889,-0.11289 0.2652889,-0.16933 0.1524,-0.0621 0.3273777,-0.0621 0.1749778,0 0.3217334,0.0621 0.1524,0.0621 0.2596444,0.17498 0.1072445,0.11288 0.1693334,0.27093 0.062089,0.1524 0.062089,0.32738 z"
         style="font-size:5.64444447px;text-align:center;text-anchor:middle;stroke-width:0.26458332"
         id="path135"
         inkscape:connector-curvature="0" />
      <path
         d="m 11.044696,181.41288 q 0,0.13547 0.07338,0.20884 0.07902,0.0734 0.208844,0.0734 0.163689,0 0.214489,-0.0959 0.05645,-0.096 0.06773,-0.19191 h 0.575733 q 0,0.37817 -0.231422,0.6096 -0.112889,0.11853 -0.270934,0.18626 -0.158044,0.0677 -0.3556,0.0677 -0.270933,0 -0.462844,-0.11289 -0.186267,-0.11289 -0.287867,-0.29916 -0.06209,-0.11289 -0.08467,-0.25964 -0.02258,-0.14676 -0.02258,-0.32174 v -0.94262 q 0,-0.17498 0.02258,-0.32173 0.02258,-0.14676 0.08467,-0.25965 0.1016,-0.18626 0.287867,-0.29915 0.191911,-0.11289 0.462844,-0.11289 0.197556,0 0.3556,0.0677 0.163689,0.0677 0.276578,0.18627 0.225778,0.254 0.225778,0.6604 h -0.575733 q 0,-0.17498 -0.07902,-0.254 -0.07338,-0.0847 -0.2032,-0.0847 -0.129822,0 -0.208844,0.0847 -0.07338,0.079 -0.07338,0.24271 z"
         style="font-size:5.64444447px;text-align:center;text-anchor:middle;stroke-width:0.26458332"
         id="path137"
         inkscape:connector-curvature="0" />
      <path
         d="m 12.452544,182.23697 v -4.01885 h 0.575734 v 1.43369 h 0.01129 q 0.09031,-0.13546 0.214489,-0.22013 0.129823,-0.0903 0.327378,-0.0903 0.107245,0 0.214489,0.0395 0.107244,0.0339 0.191911,0.11853 0.08467,0.0847 0.135467,0.22014 0.0508,0.12982 0.0508,0.32173 v 2.19569 h -0.575734 v -1.9812 q 0,-0.15805 -0.07338,-0.24836 -0.07338,-0.0903 -0.208845,-0.0903 -0.163689,0 -0.225778,0.1016 -0.06209,0.1016 -0.06209,0.29351 v 1.92476 z"
         style="font-size:5.64444447px;text-align:center;text-anchor:middle;stroke-width:0.26458332"
         id="path139"
         inkscape:connector-curvature="0" />
      <path
         d="m 16.311492,181.02341 h -1.140177 v 0.38947 q 0,0.13547 0.07338,0.20884 0.07902,0.0734 0.208845,0.0734 0.163689,0 0.214489,-0.0959 0.05644,-0.096 0.06773,-0.19191 h 0.575733 q 0,0.37817 -0.231422,0.6096 -0.112889,0.11853 -0.270933,0.18626 -0.158045,0.0677 -0.3556,0.0677 -0.270933,0 -0.462845,-0.11289 -0.186266,-0.11289 -0.287866,-0.29916 -0.06209,-0.11289 -0.08467,-0.25964 -0.02258,-0.14676 -0.02258,-0.32174 v -0.94262 q 0,-0.17498 0.02258,-0.32173 0.02258,-0.14676 0.08467,-0.25965 0.1016,-0.18626 0.287866,-0.29915 0.191912,-0.11289 0.462845,-0.11289 0.197555,0 0.3556,0.0677 0.163689,0.0677 0.276578,0.18627 0.225777,0.254 0.225777,0.63782 z m -1.140177,-0.45155 h 0.564444 v -0.32738 q 0,-0.16369 -0.07902,-0.24271 -0.07338,-0.0847 -0.2032,-0.0847 -0.129822,0 -0.208845,0.0847 -0.07338,0.079 -0.07338,0.24271 z"
         style="font-size:5.64444447px;text-align:center;text-anchor:middle;stroke-width:0.26458332"
         id="path141"
         inkscape:connector-curvature="0" />
      <path
         d="m 16.729975,182.23697 v -2.86173 h 0.575733 v 0.27657 h 0.01129 q 0.09031,-0.13546 0.214489,-0.22013 0.129822,-0.0903 0.327378,-0.0903 0.186266,0 0.310444,0.0903 0.124178,0.0903 0.2032,0.19756 0.107245,-0.11854 0.237067,-0.2032 0.129822,-0.0847 0.361244,-0.0847 0.107245,0 0.220134,0.0395 0.112888,0.0339 0.2032,0.11853 0.09031,0.0847 0.146755,0.22014 0.05644,0.12982 0.05644,0.32173 v 2.19569 h -0.575734 v -1.9812 q 0,-0.15805 -0.07338,-0.24836 -0.07338,-0.0903 -0.208844,-0.0903 -0.163689,0 -0.225778,0.1016 -0.06209,0.1016 -0.06209,0.29351 v 1.92476 H 17.87579 v -1.9812 q 0,-0.15805 -0.07338,-0.24836 -0.07338,-0.0903 -0.208844,-0.0903 -0.163689,0 -0.225778,0.1016 -0.06209,0.1016 -0.06209,0.29351 v 1.92476 z"
         style="font-size:5.64444447px;text-align:center;text-anchor:middle;stroke-width:0.26458332"
         id="path143"
         inkscape:connector-curvature="0" />
      <path
         d="m 20.01954,180.33479 q 0,-0.17498 0.02258,-0.32173 0.02258,-0.14676 0.08467,-0.25965 0.1016,-0.18626 0.287866,-0.29915 0.191911,-0.11289 0.462845,-0.11289 0.270933,0 0.4572,0.11289 0.191911,0.11289 0.293511,0.29915 0.06209,0.11289 0.08467,0.25965 0.02258,0.14675 0.02258,0.32173 v 0.94262 q 0,0.17498 -0.02258,0.32174 -0.02258,0.14675 -0.08467,0.25964 -0.1016,0.18627 -0.293511,0.29916 -0.186267,0.11289 -0.4572,0.11289 -0.270934,0 -0.462845,-0.11289 -0.186266,-0.11289 -0.287866,-0.29916 -0.06209,-0.11289 -0.08467,-0.25964 -0.02258,-0.14676 -0.02258,-0.32174 z m 0.575733,1.03293 q 0,0.16369 0.07338,0.24836 0.07902,0.079 0.208845,0.079 0.129822,0 0.2032,-0.079 0.07902,-0.0847 0.07902,-0.24836 v -1.12324 q 0,-0.16369 -0.07902,-0.24271 -0.07338,-0.0847 -0.2032,-0.0847 -0.129823,0 -0.208845,0.0847 -0.07338,0.079 -0.07338,0.24271 z m -0.428977,-2.4384 v -0.57573 h 0.508 v 0.57573 z m 0.9144,0 v -0.57573 h 0.508 v 0.57573 z"
         style="font-size:5.64444447px;text-align:center;text-anchor:middle;stroke-width:0.26458332"
         id="path145"
         inkscape:connector-curvature="0" />
      <path
         d="M 22.120067,178.21812 H 22.6958 v 3.21169 q 0,0.16369 0.05645,0.22578 0.06209,0.0565 0.225777,0.0734 v 0.54187 q -0.197555,0 -0.3556,-0.0339 -0.158044,-0.0282 -0.270933,-0.11853 -0.112889,-0.0847 -0.174978,-0.23707 -0.05644,-0.15805 -0.05644,-0.41205 z"
         style="font-size:5.64444447px;text-align:center;text-anchor:middle;stroke-width:0.26458332"
         id="path147"
         inkscape:connector-curvature="0" />
      <path
         d="m 23.167377,178.21812 h 0.575733 v 3.21169 q 0,0.16369 0.05645,0.22578 0.06209,0.0565 0.225777,0.0734 v 0.54187 q -0.197555,0 -0.3556,-0.0339 -0.158044,-0.0282 -0.270933,-0.11853 -0.112889,-0.0847 -0.174978,-0.23707 -0.05644,-0.15805 -0.05644,-0.41205 z"
         style="font-size:5.64444447px;text-align:center;text-anchor:middle;stroke-width:0.26458332"
         id="path149"
         inkscape:connector-curvature="0" />
      <path
         d="m 25.913662,181.02341 h -1.140177 v 0.38947 q 0,0.13547 0.07338,0.20884 0.07902,0.0734 0.208845,0.0734 0.163689,0 0.214489,-0.0959 0.05644,-0.096 0.06773,-0.19191 h 0.575733 q 0,0.37817 -0.231422,0.6096 -0.112889,0.11853 -0.270933,0.18626 -0.158045,0.0677 -0.3556,0.0677 -0.270933,0 -0.462845,-0.11289 -0.186266,-0.11289 -0.287866,-0.29916 -0.06209,-0.11289 -0.08467,-0.25964 -0.02258,-0.14676 -0.02258,-0.32174 v -0.94262 q 0,-0.17498 0.02258,-0.32173 0.02258,-0.14676 0.08467,-0.25965 0.1016,-0.18626 0.287866,-0.29915 0.191912,-0.11289 0.462845,-0.11289 0.197555,0 0.3556,0.0677 0.163689,0.0677 0.276578,0.18627 0.225777,0.254 0.225777,0.63782 z m -1.140177,-0.45155 h 0.564444 v -0.32738 q 0,-0.16369 -0.07902,-0.24271 -0.07338,-0.0847 -0.2032,-0.0847 -0.129822,0 -0.208845,0.0847 -0.07338,0.079 -0.07338,0.24271 z"
         style="font-size:5.64444447px;text-align:center;text-anchor:middle;stroke-width:0.26458332"
         id="path151"
         inkscape:connector-curvature="0" />
      <path
         d="m 26.332145,182.23697 v -2.86173 h 0.575733 v 0.3048 q 0.174978,-0.15805 0.344311,-0.24836 0.169334,-0.0903 0.417689,-0.0903 v 0.6096 q -0.08467,-0.0339 -0.174978,-0.0339 -0.09031,0 -0.197555,0.0339 -0.1016,0.0282 -0.186267,0.1016 -0.09031,0.0734 -0.146755,0.19191 -0.05645,0.11853 -0.05645,0.29351 v 1.69898 z"
         style="font-size:5.64444447px;text-align:center;text-anchor:middle;stroke-width:0.26458332"
         id="path153"
         inkscape:connector-curvature="0" />
    </g>
    <g
       aria-label="WavPlay"
       style="font-style:normal;font-variant:normal;font-weight:normal;font-stretch:normal;font-size:5.64444447px;line-height:1.25;font-family:'DIN Condensed';-inkscape-font-specification:'DIN Condensed, ';letter-spacing:0px;word-spacing:0px;fill:#000000;fill-opacity:1;stroke:none;stroke-width:0.26458332"
       id="text127">
      <path
         d="m 11.133005,184.0862 -0.598311,4.01884 H 9.9928273 l -0.4402667,-2.60773 h -0.011289 l -0.4346222,2.60773 H 8.5647828 L 7.9664717,184.0862 h 0.6096 l 0.2878667,2.55129 h 0.011289 l 0.4515555,-2.55129 h 0.4402667 l 0.4684885,2.61337 h 0.01129 l 0.276578,-2.61337 z"
         style="font-size:5.64444447px;stroke-width:0.26458332"
         id="path61" />
      <path
         d="m 12.454775,188.10504 v -0.29351 h -0.01129 q -0.112889,0.15804 -0.231422,0.24271 -0.112889,0.0847 -0.321733,0.0847 -0.1016,0 -0.208845,-0.0339 -0.1016,-0.0282 -0.197555,-0.11289 -0.09596,-0.079 -0.158045,-0.22578 -0.05644,-0.1524 -0.05644,-0.38946 0,-0.24271 0.03951,-0.42334 0.03951,-0.18626 0.146755,-0.31044 0.1016,-0.11853 0.276578,-0.17498 0.174978,-0.0621 0.445911,-0.0621 0.02822,0 0.06209,0 0.03387,0 0.06209,0.006 0.02822,0.006 0.06773,0.006 0.03951,0 0.08467,0.006 v -0.29916 q 0,-0.14675 -0.06209,-0.24271 -0.06209,-0.096 -0.225778,-0.096 -0.112888,0 -0.208844,0.0734 -0.09031,0.0734 -0.118533,0.21449 h -0.5588 q 0.02258,-0.38382 0.259644,-0.62089 0.112889,-0.11289 0.270933,-0.17498 0.158045,-0.0677 0.3556,-0.0677 0.180623,0 0.338667,0.0565 0.158045,0.0564 0.276578,0.16933 0.112889,0.11289 0.180622,0.28222 0.06773,0.16933 0.06773,0.39511 v 1.99249 z m 0,-1.23049 q -0.09596,-0.0169 -0.158044,-0.0169 -0.186267,0 -0.321734,0.0903 -0.129822,0.0847 -0.129822,0.31609 0,0.16369 0.07902,0.26529 0.07902,0.1016 0.220134,0.1016 0.146755,0 0.225777,-0.096 0.08467,-0.096 0.08467,-0.27093 z"
         style="font-size:5.64444447px;stroke-width:0.26458332"
         id="path63" />
      <path
         d="m 15.171341,185.24331 -0.745067,2.86173 h -0.508 l -0.745067,-2.86173 h 0.6096 l 0.383822,1.8288 h 0.01129 l 0.383822,-1.8288 z"
         style="font-size:5.64444447px;stroke-width:0.26458332"
         id="path65" />
      <path
         d="m 15.43416,188.10504 v -4.01884 h 0.8636 q 0.237067,0 0.417689,0.0621 0.180622,0.0621 0.327378,0.22013 0.146755,0.15804 0.2032,0.37253 0.05644,0.20885 0.05644,0.57009 0,0.27093 -0.03387,0.4572 -0.02822,0.18627 -0.129822,0.34996 -0.118533,0.19755 -0.316089,0.31044 -0.197555,0.10725 -0.519289,0.10725 h -0.293511 v 1.56915 z m 0.575733,-3.47698 v 1.36596 h 0.276578 q 0.174978,0 0.270933,-0.0508 0.09596,-0.0508 0.141111,-0.14111 0.04516,-0.0847 0.0508,-0.20885 0.01129,-0.12417 0.01129,-0.27657 0,-0.14112 -0.0056,-0.26529 -0.0056,-0.12983 -0.0508,-0.22578 -0.04516,-0.096 -0.135467,-0.14676 -0.09031,-0.0508 -0.259644,-0.0508 z"
         style="font-size:5.64444447px;stroke-width:0.26458332"
         id="path67" />
      <path
         d="m 17.659483,184.0862 h 0.575733 v 3.21169 q 0,0.16368 0.05644,0.22577 0.06209,0.0564 0.225778,0.0734 v 0.54187 q -0.197555,0 -0.3556,-0.0339 -0.158044,-0.0282 -0.270933,-0.11853 -0.112889,-0.0847 -0.174978,-0.23707 -0.05644,-0.15804 -0.05644,-0.41204 z"
         style="font-size:5.64444447px;stroke-width:0.26458332"
         id="path69" />
      <path
         d="m 19.830036,188.10504 v -0.29351 h -0.01129 q -0.112889,0.15804 -0.231422,0.24271 -0.112889,0.0847 -0.321733,0.0847 -0.1016,0 -0.208845,-0.0339 -0.1016,-0.0282 -0.197555,-0.11289 -0.09596,-0.079 -0.158045,-0.22578 -0.05644,-0.1524 -0.05644,-0.38946 0,-0.24271 0.03951,-0.42334 0.03951,-0.18626 0.146755,-0.31044 0.1016,-0.11853 0.276578,-0.17498 0.174978,-0.0621 0.445911,-0.0621 0.02822,0 0.06209,0 0.03387,0 0.06209,0.006 0.02822,0.006 0.06773,0.006 0.03951,0 0.08467,0.006 v -0.29916 q 0,-0.14675 -0.06209,-0.24271 -0.06209,-0.096 -0.225778,-0.096 -0.112889,0 -0.208844,0.0734 -0.09031,0.0734 -0.118533,0.21449 h -0.5588 q 0.02258,-0.38382 0.259644,-0.62089 0.112889,-0.11289 0.270933,-0.17498 0.158045,-0.0677 0.3556,-0.0677 0.180623,0 0.338667,0.0565 0.158044,0.0564 0.276578,0.16933 0.112889,0.11289 0.180622,0.28222 0.06773,0.16933 0.06773,0.39511 v 1.99249 z m 0,-1.23049 q -0.09596,-0.0169 -0.158044,-0.0169 -0.186267,0 -0.321734,0.0903 -0.129822,0.0847 -0.129822,0.31609 0,0.16369 0.07902,0.26529 0.07902,0.1016 0.220134,0.1016 0.146755,0 0.225777,-0.096 0.08467,-0.096 0.08467,-0.27093 z"
         style="font-size:5.64444447px;stroke-width:0.26458332"
         id="path71" />
      <path
         d="m 20.515395,185.24331 h 0.6096 l 0.395111,1.78364 h 0.01129 l 0.389466,-1.78364 h 0.592667 l -0.824089,3.35844 q -0.04516,0.19191 -0.129822,0.31609 -0.07902,0.12418 -0.186267,0.2032 -0.107244,0.079 -0.231422,0.10725 -0.118533,0.0339 -0.248356,0.0339 h -0.158044 v -0.54186 h 0.129822 q 0.08467,0 0.146756,-0.0226 0.06209,-0.0226 0.112889,-0.1016 0.04516,-0.079 0.08467,-0.22578 0.03951,-0.14111 0.09031,-0.39511 z"
         style="font-size:5.64444447px;stroke-width:0.26458332"
         id="path73" />
    </g>
    <g
       aria-label="Output"
       style="font-style:normal;font-variant:normal;font-weight:normal;font-stretch:normal;font-size:3.88055563px;line-height:1.25;font-family:'DIN Condensed';-inkscape-font-specification:'DIN Condensed, ';text-align:center;letter-spacing:0px;word-spacing:0px;text-anchor:middle;fill:#000000;fill-opacity:1;stroke:none;stroke-width:0.26458332"
       id="text4652">
      <path
         d="m 11.318783,285.13361 q 0,-0.16687 0.05821,-0.29493 0.05821,-0.12805 0.155222,-0.21343 0.09313,-0.0815 0.20955,-0.12417 0.120297,-0.0427 0.240594,-0.0427 0.120298,0 0.236714,0.0427 0.120298,0.0427 0.217311,0.12417 0.09313,0.0854 0.151342,0.21343 0.05821,0.12806 0.05821,0.29493 v 1.45909 q 0,0.17462 -0.05821,0.2988 -0.05821,0.12418 -0.151342,0.20567 -0.09701,0.0854 -0.217311,0.12806 -0.116416,0.0427 -0.236714,0.0427 -0.120297,0 -0.240594,-0.0427 -0.116417,-0.0427 -0.20955,-0.12806 -0.09701,-0.0815 -0.155222,-0.20567 -0.05821,-0.12418 -0.05821,-0.2988 z m 0.395817,1.45909 q 0,0.14358 0.07761,0.21343 0.08149,0.066 0.190147,0.066 0.108656,0 0.186267,-0.066 0.08149,-0.0698 0.08149,-0.21343 v -1.45909 q 0,-0.14358 -0.08149,-0.20955 -0.07761,-0.0698 -0.186267,-0.0698 -0.108655,0 -0.190147,0.0698 -0.07761,0.066 -0.07761,0.20955 z"
         style="font-size:3.88055563px;text-align:center;text-anchor:middle;stroke-width:0.26458332"
         id="path76" />
      <path
         d="m 14.154621,285.27719 v 1.96744 h -0.395817 v -0.19015 h -0.0078 q -0.06209,0.0931 -0.151342,0.15522 -0.08537,0.0582 -0.221191,0.0582 -0.07373,0 -0.147462,-0.0233 -0.07373,-0.0272 -0.131938,-0.0854 -0.05821,-0.0582 -0.09313,-0.14746 -0.03493,-0.0931 -0.03493,-0.22508 v -1.50953 h 0.395817 v 1.36207 q 0,0.10866 0.05045,0.17075 0.05045,0.0621 0.143581,0.0621 0.112536,0 0.155222,-0.0698 0.04269,-0.0699 0.04269,-0.20179 v -1.32327 z"
         style="font-size:3.88055563px;text-align:center;text-anchor:middle;stroke-width:0.26458332"
         id="path78" />
      <path
         d="m 14.479314,285.27719 v -0.59761 h 0.395817 v 0.59761 h 0.244475 v 0.31044 h -0.244475 v 1.09044 q 0,0.0699 0.01164,0.10865 0.01552,0.0388 0.04657,0.0582 0.03104,0.0194 0.07373,0.0233 0.04657,0.004 0.112536,0.004 v 0.37253 h -0.162984 q -0.135819,0 -0.228952,-0.0427 -0.08925,-0.0427 -0.143581,-0.10865 -0.05433,-0.066 -0.08149,-0.14746 -0.02328,-0.0854 -0.02328,-0.16299 v -1.19521 h -0.197908 v -0.31044 z"
         style="font-size:3.88055563px;text-align:center;text-anchor:middle;stroke-width:0.26458332"
         id="path80" />
      <path
         d="m 15.267552,288.04014 v -2.76295 h 0.395817 v 0.1785 q 0.07373,-0.0854 0.151341,-0.14358 0.07761,-0.0582 0.225073,-0.0582 0.244475,0 0.345369,0.18627 0.03492,0.066 0.05045,0.16298 0.01552,0.097 0.01552,0.26 v 0.74895 q 0,0.21731 -0.01164,0.31432 -0.02328,0.19403 -0.178506,0.29105 -0.07761,0.0504 -0.225072,0.0504 -0.116417,0 -0.20955,-0.0504 -0.08925,-0.0543 -0.155222,-0.15135 h -0.0078 v 0.97402 z m 0.787753,-2.12266 q 0,-0.1203 -0.04657,-0.19403 -0.04657,-0.0737 -0.147461,-0.0737 -0.08925,0 -0.143581,0.0698 -0.05433,0.066 -0.05433,0.17463 v 0.76447 q 0,0.0931 0.05433,0.15522 0.05821,0.0582 0.143581,0.0582 0.112536,0 0.151342,-0.0698 0.04269,-0.0699 0.04269,-0.16299 z"
         style="font-size:3.88055563px;text-align:center;text-anchor:middle;stroke-width:0.26458332"
         id="path82" />
      <path
         d="m 17.959384,285.27719 v 1.96744 h -0.395817 v -0.19015 h -0.0078 q -0.06209,0.0931 -0.151341,0.15522 -0.08537,0.0582 -0.221192,0.0582 -0.07373,0 -0.147461,-0.0233 -0.07373,-0.0272 -0.131939,-0.0854 -0.05821,-0.0582 -0.09313,-0.14746 -0.03492,-0.0931 -0.03492,-0.22508 v -1.50953 h 0.395816 v 1.36207 q 0,0.10866 0.05045,0.17075 0.05045,0.0621 0.14358,0.0621 0.112536,0 0.155222,-0.0698 0.04269,-0.0699 0.04269,-0.20179 v -1.32327 z"
         style="font-size:3.88055563px;text-align:center;text-anchor:middle;stroke-width:0.26458332"
         id="path84" />
      <path
         d="m 18.284078,285.27719 v -0.59761 h 0.395816 v 0.59761 h 0.244475 v 0.31044 h -0.244475 v 1.09044 q 0,0.0699 0.01164,0.10865 0.01552,0.0388 0.04657,0.0582 0.03104,0.0194 0.07373,0.0233 0.04657,0.004 0.112536,0.004 v 0.37253 h -0.162983 q -0.135819,0 -0.228953,-0.0427 -0.08925,-0.0427 -0.14358,-0.10865 -0.05433,-0.066 -0.08149,-0.14746 -0.02328,-0.0854 -0.02328,-0.16299 v -1.19521 h -0.197909 v -0.31044 z"
         style="font-size:3.88055563px;text-align:center;text-anchor:middle;stroke-width:0.26458332"
         id="path86" />
    </g>
    <g
       aria-label="Pitch"
       style="font-style:normal;font-variant:normal;font-weight:normal;font-stretch:normal;font-size:3.88055563px;line-height:1.25;font-family:'DIN Condensed';-inkscape-font-specification:'DIN Condensed, ';text-align:center;letter-spacing:0px;word-spacing:0px;text-anchor:middle;fill:#000000;fill-opacity:1;stroke:none;stroke-width:0.26458332"
       id="text4656">
      <path
         d="m 12.199203,222.11943 v -2.76296 h 0.593725 q 0.162983,0 0.287161,0.0427 0.124178,0.0427 0.225072,0.15134 0.100894,0.10866 0.1397,0.25612 0.03881,0.14358 0.03881,0.39194 0,0.18626 -0.02328,0.31432 -0.0194,0.12806 -0.08925,0.24059 -0.08149,0.13582 -0.217311,0.21344 -0.135819,0.0737 -0.357011,0.0737 h -0.201789 v 1.07879 z m 0.395816,-2.39042 v 0.93909 h 0.190148 q 0.120297,0 0.186266,-0.0349 0.06597,-0.0349 0.09701,-0.097 0.03104,-0.0582 0.03492,-0.14358 0.0078,-0.0854 0.0078,-0.19014 0,-0.097 -0.0039,-0.18239 -0.0039,-0.0892 -0.03492,-0.15522 -0.03105,-0.066 -0.09313,-0.1009 -0.06209,-0.0349 -0.178505,-0.0349 z"
         style="font-size:3.88055563px;text-align:center;text-anchor:middle;stroke-width:0.26458332"
         id="path117" />
      <path
         d="m 13.752395,222.11943 v -1.96744 h 0.395817 v 1.96744 z m 0,-2.36714 v -0.39582 h 0.395817 v 0.39582 z"
         style="font-size:3.88055563px;text-align:center;text-anchor:middle;stroke-width:0.26458332"
         id="path119" />
      <path
         d="m 14.47242,220.15199 v -0.59761 h 0.395817 v 0.59761 h 0.244475 v 0.31044 h -0.244475 v 1.09044 q 0,0.0698 0.01164,0.10865 0.01552,0.0388 0.04657,0.0582 0.03104,0.0194 0.07373,0.0233 0.04657,0.004 0.112536,0.004 v 0.37253 h -0.162984 q -0.135819,0 -0.228952,-0.0427 -0.08925,-0.0427 -0.143581,-0.10865 -0.05433,-0.066 -0.08149,-0.14746 -0.02328,-0.0854 -0.02328,-0.16299 v -1.19521 h -0.197908 v -0.31044 z"
         style="font-size:3.88055563px;text-align:center;text-anchor:middle;stroke-width:0.26458332"
         id="path121" />
      <path
         d="m 15.679758,221.55287 q 0,0.0931 0.05045,0.14358 0.05433,0.0505 0.143581,0.0505 0.112536,0 0.147461,-0.066 0.0388,-0.066 0.04657,-0.13194 h 0.395817 q 0,0.26 -0.159103,0.4191 -0.07761,0.0815 -0.186266,0.12806 -0.108656,0.0466 -0.244475,0.0466 -0.186267,0 -0.318206,-0.0776 -0.128058,-0.0776 -0.197908,-0.20567 -0.04269,-0.0776 -0.05821,-0.1785 -0.01552,-0.1009 -0.01552,-0.22119 v -0.64806 q 0,-0.12029 0.01552,-0.22119 0.01552,-0.10089 0.05821,-0.1785 0.06985,-0.12806 0.197908,-0.20567 0.131939,-0.0776 0.318206,-0.0776 0.135819,0 0.244475,0.0466 0.112536,0.0466 0.190147,0.12806 0.155222,0.17463 0.155222,0.45403 h -0.395817 q 0,-0.1203 -0.05433,-0.17463 -0.05045,-0.0582 -0.1397,-0.0582 -0.08925,0 -0.143581,0.0582 -0.05045,0.0543 -0.05045,0.16686 z"
         style="font-size:3.88055563px;text-align:center;text-anchor:middle;stroke-width:0.26458332"
         id="path123" />
      <path
         d="m 16.647653,222.11943 v -2.76296 h 0.395817 v 0.98567 h 0.0078 q 0.06209,-0.0931 0.147461,-0.15135 0.08925,-0.0621 0.225073,-0.0621 0.07373,0 0.147461,0.0272 0.07373,0.0233 0.131939,0.0815 0.05821,0.0582 0.09313,0.15134 0.03493,0.0893 0.03493,0.22119 v 1.50954 h -0.395817 v -1.36207 q 0,-0.10866 -0.05045,-0.17075 -0.05045,-0.0621 -0.143581,-0.0621 -0.112536,0 -0.155222,0.0699 -0.04269,0.0699 -0.04269,0.20179 v 1.32327 z"
         style="font-size:3.88055563px;text-align:center;text-anchor:middle;stroke-width:0.26458332"
         id="path125" />
    </g>
    <g
       aria-label="1V/oct"
       style="font-style:normal;font-variant:normal;font-weight:normal;font-stretch:normal;font-size:3.88055563px;line-height:1.25;font-family:'DIN Condensed';-inkscape-font-specification:'DIN Condensed, ';text-align:center;letter-spacing:0px;word-spacing:0px;text-anchor:middle;fill:#000000;fill-opacity:1;stroke:none;stroke-width:0.26458332"
       id="text4660">
      <path
         d="m 11.812858,265.86877 v -2.34385 l -0.395817,0.29104 v -0.4191 l 0.395817,-0.29104 h 0.395816 v 2.76295 z"
         style="font-size:3.88055563px;text-align:center;text-anchor:middle;stroke-width:0.26458332"
         id="path89" />
      <path
         d="m 14.18036,263.10582 -0.566561,2.76295 h -0.34925 l -0.56268,-2.76295 h 0.4191 l 0.314325,1.92863 h 0.0078 l 0.318205,-1.92863 z"
         style="font-size:3.88055563px;text-align:center;text-anchor:middle;stroke-width:0.26458332"
         id="path91" />
      <path
         d="m 14.2473,265.89206 0.512233,-2.80952 h 0.310445 l -0.512233,2.80952 z"
         style="font-size:3.88055563px;text-align:center;text-anchor:middle;stroke-width:0.26458332"
         id="path93" />
      <path
         d="m 15.219986,264.56103 q 0,-0.1203 0.01552,-0.22119 0.01552,-0.1009 0.05821,-0.17851 0.06985,-0.12806 0.197908,-0.20567 0.131939,-0.0776 0.318206,-0.0776 0.186267,0 0.314325,0.0776 0.131939,0.0776 0.201789,0.20567 0.04269,0.0776 0.05821,0.17851 0.01552,0.10089 0.01552,0.22119 v 0.64805 q 0,0.1203 -0.01552,0.22119 -0.01552,0.1009 -0.05821,0.17851 -0.06985,0.12806 -0.201789,0.20567 -0.128058,0.0776 -0.314325,0.0776 -0.186267,0 -0.318206,-0.0776 -0.128058,-0.0776 -0.197908,-0.20567 -0.04269,-0.0776 -0.05821,-0.17851 -0.01552,-0.10089 -0.01552,-0.22119 z m 0.395816,0.71014 q 0,0.11253 0.05045,0.17074 0.05433,0.0543 0.143581,0.0543 0.08925,0 0.1397,-0.0543 0.05433,-0.0582 0.05433,-0.17074 v -0.77223 q 0,-0.11254 -0.05433,-0.16687 -0.05045,-0.0582 -0.1397,-0.0582 -0.08925,0 -0.143581,0.0582 -0.05045,0.0543 -0.05045,0.16687 z"
         style="font-size:3.88055563px;text-align:center;text-anchor:middle;stroke-width:0.26458332"
         id="path95" />
      <path
         d="m 17.106481,265.30221 q 0,0.0931 0.05045,0.14358 0.05433,0.0505 0.14358,0.0505 0.112536,0 0.147461,-0.066 0.03881,-0.066 0.04657,-0.13194 h 0.395817 q 0,0.26 -0.159103,0.4191 -0.07761,0.0815 -0.186267,0.12806 -0.108655,0.0466 -0.244475,0.0466 -0.186267,0 -0.318205,-0.0776 -0.128059,-0.0776 -0.197909,-0.20567 -0.04269,-0.0776 -0.05821,-0.17851 -0.01552,-0.10089 -0.01552,-0.22119 v -0.64805 q 0,-0.1203 0.01552,-0.22119 0.01552,-0.1009 0.05821,-0.17851 0.06985,-0.12806 0.197909,-0.20567 0.131938,-0.0776 0.318205,-0.0776 0.13582,0 0.244475,0.0466 0.112536,0.0466 0.190147,0.12805 0.155223,0.17463 0.155223,0.45403 h -0.395817 q 0,-0.1203 -0.05433,-0.17463 -0.05045,-0.0582 -0.1397,-0.0582 -0.08925,0 -0.14358,0.0582 -0.05045,0.0543 -0.05045,0.16687 z"
         style="font-size:3.88055563px;text-align:center;text-anchor:middle;stroke-width:0.26458332"
         id="path97" />
      <path
         d="m 18.119852,263.90133 v -0.5976 h 0.395816 v 0.5976 h 0.244475 v 0.31045 h -0.244475 v 1.09043 q 0,0.0698 0.01164,0.10866 0.01552,0.0388 0.04657,0.0582 0.03104,0.0194 0.07373,0.0233 0.04657,0.004 0.112536,0.004 v 0.37253 H 18.59716 q -0.135819,0 -0.228953,-0.0427 -0.08925,-0.0427 -0.14358,-0.10866 -0.05433,-0.066 -0.08149,-0.14746 -0.02328,-0.0854 -0.02328,-0.16298 v -1.19521 h -0.197909 v -0.31045 z"
         style="font-size:3.88055563px;text-align:center;text-anchor:middle;stroke-width:0.26458332"
         id="path99" />
    </g>
    <g
       aria-label="Trigger"
       style="font-style:normal;font-variant:normal;font-weight:normal;font-stretch:normal;font-size:3.88055563px;line-height:1.25;font-family:'DIN Condensed';-inkscape-font-specification:'DIN Condensed, ';text-align:center;letter-spacing:0px;word-spacing:0px;text-anchor:middle;fill:#000000;fill-opacity:1;stroke:none;stroke-width:0.26458332"
       id="text4664">
      <path
         d="m 11.517356,243.48045 v -2.39042 H 11.05945 v -0.37253 h 1.311628 v 0.37253 h -0.457905 v 2.39042 z"
         style="font-size:3.88055563px;text-align:center;text-anchor:middle;stroke-width:0.26458332"
         id="path102" />
      <path
         d="m 12.280006,243.48045 v -1.96744 h 0.395817 v 0.20955 q 0.120297,-0.10865 0.236714,-0.17074 0.116417,-0.0621 0.287161,-0.0621 v 0.4191 q -0.05821,-0.0233 -0.120297,-0.0233 -0.06209,0 -0.13582,0.0233 -0.06985,0.0194 -0.128058,0.0699 -0.06209,0.0505 -0.100894,0.13194 -0.03881,0.0815 -0.03881,0.20179 v 1.16804 z"
         style="font-size:3.88055563px;text-align:center;text-anchor:middle;stroke-width:0.26458332"
         id="path104" />
      <path
         d="m 13.356254,243.48045 v -1.96744 h 0.395817 v 1.96744 z m 0,-2.36714 v -0.39581 h 0.395817 v 0.39581 z"
         style="font-size:3.88055563px;text-align:center;text-anchor:middle;stroke-width:0.26458332"
         id="path106" />
      <path
         d="m 14.472096,243.70941 q 0.0039,0.0699 0.05433,0.13194 0.05433,0.0621 0.155223,0.0621 0.09701,0 0.1397,-0.0621 0.04269,-0.0582 0.04269,-0.15135 v -0.38805 h -0.0078 q -0.06597,0.097 -0.159103,0.15134 -0.08925,0.0504 -0.20955,0.0504 -0.248356,0 -0.34537,-0.18627 -0.03493,-0.066 -0.05045,-0.16298 -0.01552,-0.097 -0.01552,-0.26 v -0.74895 q 0,-0.21343 0.01164,-0.31432 0.02328,-0.19403 0.182386,-0.29104 0.07373,-0.0504 0.221191,-0.0504 0.07373,0 0.124178,0.0155 0.05433,0.0155 0.09701,0.0427 0.04269,0.0272 0.07761,0.066 0.03493,0.0349 0.07373,0.0776 v -0.17851 h 0.395816 v 2.20804 q 0,0.10089 -0.03492,0.20179 -0.03104,0.10477 -0.104775,0.18626 -0.07373,0.0854 -0.186266,0.13582 -0.112536,0.0543 -0.267759,0.0543 -0.08925,0 -0.186266,-0.031 -0.09701,-0.0272 -0.178506,-0.097 -0.08537,-0.066 -0.147461,-0.1785 -0.05821,-0.10866 -0.07761,-0.28328 z m 0,-0.83432 q 0,0.0931 0.0388,0.16298 0.04269,0.0699 0.155222,0.0699 0.08537,0 0.1397,-0.0582 0.05821,-0.0621 0.05821,-0.15522 v -0.76447 q 0,-0.10866 -0.05433,-0.17462 -0.05433,-0.0699 -0.143581,-0.0699 -0.100894,0 -0.147461,0.0737 -0.04657,0.0737 -0.04657,0.19402 z"
         style="font-size:3.88055563px;text-align:center;text-anchor:middle;stroke-width:0.26458332"
         id="path108" />
      <path
         d="m 15.980359,243.70941 q 0.0039,0.0699 0.05433,0.13194 0.05433,0.0621 0.155222,0.0621 0.09701,0 0.1397,-0.0621 0.04269,-0.0582 0.04269,-0.15135 v -0.38805 h -0.0078 q -0.06597,0.097 -0.159103,0.15134 -0.08925,0.0504 -0.20955,0.0504 -0.248356,0 -0.345369,-0.18627 -0.03493,-0.066 -0.05045,-0.16298 -0.01552,-0.097 -0.01552,-0.26 v -0.74895 q 0,-0.21343 0.01164,-0.31432 0.02328,-0.19403 0.182386,-0.29104 0.07373,-0.0504 0.221192,-0.0504 0.07373,0 0.124177,0.0155 0.05433,0.0155 0.09701,0.0427 0.04269,0.0272 0.07761,0.066 0.03493,0.0349 0.07373,0.0776 v -0.17851 h 0.395817 v 2.20804 q 0,0.10089 -0.03492,0.20179 -0.03105,0.10477 -0.104775,0.18626 -0.07373,0.0854 -0.186267,0.13582 -0.112536,0.0543 -0.267758,0.0543 -0.08925,0 -0.186267,-0.031 -0.09701,-0.0272 -0.178506,-0.097 -0.08537,-0.066 -0.147461,-0.1785 -0.05821,-0.10866 -0.07761,-0.28328 z m 0,-0.83432 q 0,0.0931 0.0388,0.16298 0.04269,0.0699 0.155223,0.0699 0.08537,0 0.1397,-0.0582 0.05821,-0.0621 0.05821,-0.15522 v -0.76447 q 0,-0.10866 -0.05433,-0.17462 -0.05433,-0.0699 -0.14358,-0.0699 -0.100895,0 -0.147462,0.0737 -0.04657,0.0737 -0.04657,0.19402 z"
         style="font-size:3.88055563px;text-align:center;text-anchor:middle;stroke-width:0.26458332"
         id="path110" />
      <path
         d="m 18.237569,242.64613 h -0.783873 v 0.26776 q 0,0.0931 0.05045,0.14358 0.05433,0.0505 0.14358,0.0505 0.112536,0 0.147461,-0.066 0.03881,-0.066 0.04657,-0.13194 h 0.395817 q 0,0.26 -0.159103,0.4191 -0.07761,0.0815 -0.186267,0.12806 -0.108655,0.0466 -0.244475,0.0466 -0.186266,0 -0.318205,-0.0776 -0.128059,-0.0776 -0.197909,-0.20567 -0.04269,-0.0776 -0.05821,-0.17851 -0.01552,-0.10089 -0.01552,-0.22119 v -0.64805 q 0,-0.1203 0.01552,-0.2212 0.01552,-0.10089 0.05821,-0.1785 0.06985,-0.12806 0.197909,-0.20567 0.131939,-0.0776 0.318205,-0.0776 0.13582,0 0.244475,0.0466 0.112536,0.0466 0.190147,0.12805 0.155223,0.17463 0.155223,0.43851 z m -0.783873,-0.31044 h 0.388056 v -0.22507 q 0,-0.11254 -0.05433,-0.16687 -0.05045,-0.0582 -0.1397,-0.0582 -0.08925,0 -0.14358,0.0582 -0.05045,0.0543 -0.05045,0.16687 z"
         style="font-size:3.88055563px;text-align:center;text-anchor:middle;stroke-width:0.26458332"
         id="path112" />
      <path
         d="m 18.525276,243.48045 v -1.96744 h 0.395816 v 0.20955 q 0.120297,-0.10865 0.236714,-0.17074 0.116417,-0.0621 0.287161,-0.0621 v 0.4191 q -0.05821,-0.0233 -0.120297,-0.0233 -0.06209,0 -0.135819,0.0233 -0.06985,0.0194 -0.128059,0.0699 -0.06209,0.0505 -0.100894,0.13194 -0.03881,0.0815 -0.03881,0.20179 v 1.16804 z"
         style="font-size:3.88055563px;text-align:center;text-anchor:middle;stroke-width:0.26458332"
         id="path114" />
    </g>
    <g
       aria-label="Trigger"
       style="font-style:normal;font-variant:normal;font-weight:normal;font-stretch:normal;font-size:3.17499995px;line-height:1.25;font-family:'DIN Condensed';-inkscape-font-specification:'DIN Condensed, ';text-align:center;letter-spacing:0px;word-spacing:0px;text-anchor:middle;fill:#000000;fill-opacity:1;stroke:none;stroke-width:0.26458332"
       id="text55"
       transform="translate(0.52916667,-2.6458334)">
      <path
         d="m 21.721901,243.48045 v -1.9558 h -0.37465 v -0.3048 h 1.07315 v 0.3048 h -0.37465 v 1.9558 z"
         style="font-size:3.17499995px;text-align:center;text-anchor:middle;stroke-width:0.26458332"
         id="path128"
         inkscape:connector-curvature="0" />
      <path
         d="m 22.345888,243.48045 v -1.60972 h 0.32385 v 0.17145 q 0.09843,-0.0889 0.193675,-0.1397 0.09525,-0.0508 0.23495,-0.0508 v 0.3429 q -0.04763,-0.019 -0.09842,-0.019 -0.0508,0 -0.111125,0.019 -0.05715,0.0159 -0.104775,0.0572 -0.0508,0.0413 -0.08255,0.10795 -0.03175,0.0667 -0.03175,0.1651 v 0.95567 z"
         style="font-size:3.17499995px;text-align:center;text-anchor:middle;stroke-width:0.26458332"
         id="path130"
         inkscape:connector-curvature="0" />
      <path
         d="m 23.226455,243.48045 v -1.60972 h 0.32385 v 1.60972 z m 0,-1.93675 v -0.32385 h 0.32385 v 0.32385 z"
         style="font-size:3.17499995px;text-align:center;text-anchor:middle;stroke-width:0.26458332"
         id="path132"
         inkscape:connector-curvature="0" />
      <path
         d="m 24.139416,243.66778 q 0.0032,0.0572 0.04445,0.10795 0.04445,0.0508 0.127,0.0508 0.07937,0 0.1143,-0.0508 0.03492,-0.0476 0.03492,-0.12383 v -0.3175 h -0.0063 q -0.05398,0.0794 -0.130175,0.12383 -0.07303,0.0413 -0.17145,0.0413 -0.2032,0 -0.282575,-0.1524 -0.02858,-0.054 -0.04128,-0.13335 -0.0127,-0.0794 -0.0127,-0.21272 v -0.61278 q 0,-0.17462 0.0095,-0.25717 0.01905,-0.15875 0.149225,-0.23813 0.06032,-0.0413 0.180975,-0.0413 0.06033,0 0.1016,0.0127 0.04445,0.0127 0.07937,0.0349 0.03493,0.0222 0.0635,0.054 0.02858,0.0286 0.06032,0.0635 v -0.14605 h 0.32385 v 1.80657 q 0,0.0825 -0.02858,0.1651 -0.0254,0.0857 -0.08573,0.1524 -0.06032,0.0699 -0.1524,0.11113 -0.09207,0.0445 -0.219075,0.0445 -0.07302,0 -0.1524,-0.0254 -0.07937,-0.0222 -0.14605,-0.0794 -0.06985,-0.054 -0.12065,-0.14605 -0.04763,-0.0889 -0.0635,-0.23177 z m 0,-0.68263 q 0,0.0762 0.03175,0.13335 0.03493,0.0571 0.127,0.0571 0.06985,0 0.1143,-0.0476 0.04763,-0.0508 0.04763,-0.127 v -0.62548 q 0,-0.0889 -0.04445,-0.14287 -0.04445,-0.0571 -0.117475,-0.0571 -0.08255,0 -0.12065,0.0603 -0.0381,0.0603 -0.0381,0.15875 z"
         style="font-size:3.17499995px;text-align:center;text-anchor:middle;stroke-width:0.26458332"
         id="path134"
         inkscape:connector-curvature="0" />
    </g>
    <g
       aria-label="Gate"
       style="font-style:normal;font-variant:normal;font-weight:normal;font-stretch:normal;font-size:3.17499995px;line-height:1.25;font-family:'DIN Condensed';-inkscape-font-specification:'DIN Condensed, ';text-align:center;letter-spacing:0px;word-spacing:0px;text-anchor:middle;fill:#000000;fill-opacity:1;stroke:none;stroke-width:0.26458332"
       id="text59"
       transform="translate(-1.0583333,1.0583333)">
      <path
         d="m 22.742763,226.4074 q 0,-0.13653 0.04763,-0.2413 0.04763,-0.10478 0.127,-0.17463 0.0762,-0.0667 0.17145,-0.1016 0.09843,-0.0349 0.19685,-0.0349 0.09842,0 0.193675,0.0349 0.09843,0.0349 0.1778,0.1016 0.0762,0.0699 0.123825,0.17463 0.04763,0.10477 0.04763,0.2413 v 0.1143 h -0.32385 v -0.1143 q 0,-0.11748 -0.06668,-0.17145 -0.0635,-0.0572 -0.1524,-0.0572 -0.0889,0 -0.155575,0.0572 -0.0635,0.054 -0.0635,0.17145 v 1.1938 q 0,0.11747 0.0635,0.17462 0.06668,0.054 0.155575,0.054 0.0889,0 0.1524,-0.054 0.06668,-0.0572 0.06668,-0.17462 v -0.42545 H 23.247588 V 226.89 h 0.581025 v 0.7112 q 0,0.14287 -0.04763,0.24447 -0.04763,0.1016 -0.123825,0.16828 -0.07937,0.0699 -0.1778,0.10477 -0.09525,0.0349 -0.193675,0.0349 -0.09842,0 -0.19685,-0.0349 -0.09525,-0.0349 -0.17145,-0.10477 -0.07937,-0.0667 -0.127,-0.16828 -0.04763,-0.1016 -0.04763,-0.24447 z"
         style="font-size:3.17499995px;text-align:center;text-anchor:middle;stroke-width:0.26458332"
         id="path144"
         inkscape:connector-curvature="0" />
      <path
         d="m 24.707394,228.1346 v -0.1651 h -0.0064 q -0.0635,0.0889 -0.130175,0.13652 -0.0635,0.0476 -0.180975,0.0476 -0.05715,0 -0.117475,-0.019 -0.05715,-0.0159 -0.111125,-0.0635 -0.05398,-0.0445 -0.0889,-0.127 -0.03175,-0.0857 -0.03175,-0.21908 0,-0.13652 0.02222,-0.23812 0.02223,-0.10478 0.08255,-0.17463 0.05715,-0.0667 0.155575,-0.0984 0.09843,-0.0349 0.250825,-0.0349 0.01588,0 0.03493,0 0.01905,0 0.03493,0.003 0.01587,0.003 0.0381,0.003 0.02222,0 0.04763,0.003 v -0.16828 q 0,-0.0825 -0.03493,-0.13652 -0.03493,-0.054 -0.127,-0.054 -0.0635,0 -0.117475,0.0413 -0.0508,0.0413 -0.06668,0.12065 h -0.314325 q 0.0127,-0.2159 0.14605,-0.34925 0.0635,-0.0635 0.1524,-0.0984 0.0889,-0.0381 0.200025,-0.0381 0.1016,0 0.1905,0.0317 0.0889,0.0318 0.155575,0.0953 0.0635,0.0635 0.1016,0.15875 0.0381,0.0952 0.0381,0.22225 v 1.12078 z m 0,-0.69215 q -0.05398,-0.01 -0.0889,-0.01 -0.104775,0 -0.180975,0.0508 -0.07303,0.0476 -0.07303,0.1778 0,0.0921 0.04445,0.14923 0.04445,0.0571 0.123825,0.0571 0.08255,0 0.127,-0.054 0.04763,-0.054 0.04763,-0.1524 z"
         style="font-size:3.17499995px;text-align:center;text-anchor:middle;stroke-width:0.26458332"
         id="path146"
         inkscape:connector-curvature="0" />
      <path
         d="m 25.26664,226.52487 v -0.48895 h 0.32385 v 0.48895 h 0.200025 v 0.254 H 25.59049 v 0.89218 q 0,0.0571 0.0095,0.0889 0.0127,0.0317 0.0381,0.0476 0.0254,0.0159 0.06033,0.019 0.0381,0.003 0.09207,0.003 v 0.3048 h -0.13335 q -0.111125,0 -0.187325,-0.0349 -0.07303,-0.0349 -0.117475,-0.0889 -0.04445,-0.054 -0.06668,-0.12065 -0.01905,-0.0699 -0.01905,-0.13335 v -0.9779 h -0.161925 v -0.254 z"
         style="font-size:3.17499995px;text-align:center;text-anchor:middle;stroke-width:0.26458332"
         id="path148"
         inkscape:connector-curvature="0" />
      <path
         d="m 26.848187,227.45197 h -0.64135 v 0.21908 q 0,0.0762 0.04127,0.11747 0.04445,0.0413 0.117475,0.0413 0.09207,0 0.12065,-0.054 0.03175,-0.054 0.0381,-0.10795 h 0.32385 q 0,0.21273 -0.130175,0.3429 -0.0635,0.0667 -0.1524,0.10478 -0.0889,0.0381 -0.200025,0.0381 -0.1524,0 -0.26035,-0.0635 -0.104775,-0.0635 -0.161925,-0.16828 -0.03492,-0.0635 -0.04763,-0.14605 -0.0127,-0.0825 -0.0127,-0.18097 v -0.53023 q 0,-0.0984 0.0127,-0.18097 0.0127,-0.0825 0.04763,-0.14605 0.05715,-0.10478 0.161925,-0.16828 0.10795,-0.0635 0.26035,-0.0635 0.111125,0 0.200025,0.0381 0.09207,0.0381 0.155575,0.10478 0.127,0.14287 0.127,0.35877 z m -0.64135,-0.254 h 0.3175 v -0.18415 q 0,-0.0921 -0.04445,-0.13652 -0.04128,-0.0476 -0.1143,-0.0476 -0.07303,0 -0.117475,0.0476 -0.04127,0.0445 -0.04127,0.13652 z"
         style="font-size:3.17499995px;text-align:center;text-anchor:middle;stroke-width:0.26458332"
         id="path150"
         inkscape:connector-curvature="0" />
    </g>
  </g>
  <g
     inkscape:groupmode="layer"
     id="layer2"
     inkscape:label="components"
     style="display:none">
    <circle
       style="display:inline;opacity:1;vector-effect:none;fill:#ff0000;fill-opacity:1;fill-rule:evenodd;stroke:none;stroke-width:1;stroke-linecap:butt;stroke-linejoin:miter;stroke-miterlimit:4;stroke-dasharray:none;stroke-dashoffset:0;stroke-opacity:1;paint-order:normal"
       id="path4954"
       cx="15.24"
       cy="43.946594"
       r="4"
       inkscape:label="pitch" />
    <circle
       r="4"
       cy="87.123924"
       cx="15.24"
       id="circle4956"
       style="display:inline;opacity:1;vector-effect:none;fill:#00ff00;fill-opacity:1;fill-rule:evenodd;stroke:none;stroke-width:1;stroke-linecap:butt;stroke-linejoin:miter;stroke-miterlimit:4;stroke-dasharray:none;stroke-dashoffset:0;stroke-opacity:1;paint-order:normal"
       inkscape:label="pitch" />
    <circle
       style="display:inline;opacity:1;vector-effect:none;fill:#0000ff;fill-opacity:1;fill-rule:evenodd;stroke:none;stroke-width:1;stroke-linecap:butt;stroke-linejoin:miter;stroke-miterlimit:4;stroke-dasharray:none;stroke-dashoffset:0;stroke-opacity:1;paint-order:normal"
       id="circle4958"
       cx="15.24"
       cy="108.71259"
       r="4"
       inkscape:label="audio" />
    <circle
       inkscape:label="isplaying"
       r="4"
       cy="25.80987"
       cx="15.24"
       id="circle66"
       style="display:inline;opacity:1;vector-effect:none;fill:#a300ff;fill-opacity:1;fill-rule:evenodd;stroke:none;stroke-width:1;stroke-linecap:butt;stroke-linejoin:miter;stroke-miterlimit:4;stroke-dasharray:none;stroke-dashoffset:0;stroke-opacity:1;paint-order:normal" />
    <circle
       inkscape:label="trigger"
       style="display:inline;opacity:1;vector-effect:none;fill:#00ff00;fill-opacity:1;fill-rule:evenodd;stroke:none;stroke-width:1;stroke-linecap:butt;stroke-linejoin:miter;stroke-miterlimit:4;stroke-dasharray:none;stroke-dashoffset:0;stroke-opacity:1;paint-order:normal"
       id="circle4666"
       cx="15.24"
       cy="65.535255"
       r="4" />
  </g>
</svg>
